<svg xmlns="http://www.w3.org/2000/svg" width="1024" height="1024" viewBox="0 0 1024 1024" role="img" aria-label="Codiva">
  <path fill="#104E4E" d="m493.371 1021.591c-3.593-1.625-17.046-10.313-29.895-19.307-12.849-8.995-37.278-25.613-54.287-36.93C268.27 871.592 170.831 805.325 139.092 781.665c-17.754-13.235-20.605-17.671-20.605-32.06 0-11.15.516-12.459 7.216-18.309 3.969-3.465 23.711-16.798 43.871-29.63l36.655-23.33 17.981 12.919c9.89 7.105 25.269 17.819 34.176 23.808l16.195 10.889-18.253 12.147c-10.039 6.681-18.531 12.984-18.873 14.007-.656 1.97 28.685 22.426 155.24 108.225 43.09 29.214 86.954 59.079 97.475 66.368 10.521 7.289 19.969 13.252 20.997 13.252 1.027 0 10.51-5.892 21.074-13.093 47.478-32.365 245.653-165.728 253.187-170.385 4.955-3.062-.339-9.446-17.659-21.297l-17.544-12.003 4.728-3.593c2.6-1.976 17.87-12.556 33.931-23.511l29.203-19.918 34.711 23.653c19.091 13.009 38.161 26.467 42.378 29.907 14.227 11.605 15.182 31.824 2.083 44.136-8.018 7.537-41.74 30.506-191.182 130.222-178.969 119.417-178.362 119.042-193.802 119.837-7.628.393-14.875-.496-18.904-2.317zm5.227-239.032C494.478 781.036 481.953 773.447 470.765 765.695 401.589 717.765 249.524 615.823 168.135 562.815 123.075 533.468 117.455 527.853 117.455 512.179c0-13.288 4.547-18.21 37.491-40.578 45.13-30.643 49.162-33.064 52.762-31.682 1.776.682 17.456 11.105 34.845 23.163l31.615 21.924-18.046 12.01c-9.926 6.606-18.337 12.881-18.691 13.945-.792 2.375 11.012 10.703 98.567 69.533 37.987 25.524 92.262 62.071 120.611 81.214 28.349 19.144 52.648 34.842 53.998 34.885 1.35.043 9.7-4.884 18.555-10.948 8.856-6.064 71.105-47.784 138.333-92.71l122.232-81.684-8.837-6.424c-4.861-3.533-13.679-9.361-19.598-12.953-5.918-3.591-10.557-7.177-10.309-7.969.249-.791 15.597-11.75 34.106-24.352l33.654-22.913 39.347 26.414c21.641 14.528 41.287 29.033 43.66 32.235 5.511 7.437 5.829 22.974.632 30.905-2.025 3.09-10.375 10.531-18.556 16.536-28.611 21-332.176 223.964-349.904 233.946-13.702 7.715-25.195 9.63-35.324 5.885zm-3.167-243.523C491.838 537.473 478.849 529.305 466.567 520.886 443.71 505.216 341.999 437.281 208.171 348.3 166.782 320.78 130.346 295.863 127.203 292.927c-11.397-10.643-12.413-29.469-2.241-41.557 6.062-7.204 353.147-239.408 368.758-246.703 11.956-5.587 22.815-6.148 33.398-1.727 4.121 1.722 27.518 16.438 51.992 32.702 24.475 16.264 69.549 46.09 100.165 66.279 162.212 106.965 210.708 139.841 218.933 148.415 8.805 9.179 10.599 19.341 5.556 31.465-4.902 11.786 11.779.173-245.106 170.626-64.635 42.887-122.483 80.596-128.551 83.796-12.276 6.474-24.062 7.43-34.674 2.814zm31.881-93.508c8.271-5.317 70.247-46.652 137.726-91.856 117.927-79 122.553-82.339 119.207-86.036-1.915-2.116-37.442-26.364-78.95-53.884C663.788 186.233 604.444 146.817 573.42 126.163 542.397 105.508 515.339 88.078 513.293 87.428c-2.608-.828-41.969 24.408-131.596 84.373-145.899 97.613-144.478 96.647-144.583 98.28-.089 1.36 11.062 8.965 143.212 97.689 51.028 34.259 101.069 68.002 111.204 74.984 10.135 6.982 18.948 12.638 19.586 12.568.638-.07 7.927-4.477 16.198-9.793z"/>
</svg>
