<?xml version="1.0" encoding="UTF-8" standalone="no"?>
<!-- Created with Inkscape (http://www.inkscape.org/) -->

<svg
   version="1.1"
   id="svg1"
   width="1024"
   height="1024"
   viewBox="0 0 1024 1024"
   sodipodi:docname="ChatGPT Image Jun 18, 2025, 10_07_32 PM.svg"
   inkscape:version="1.4.2 (f4327f4, 2025-05-13)"
   xmlns:inkscape="http://www.inkscape.org/namespaces/inkscape"
   xmlns:sodipodi="http://sodipodi.sourceforge.net/DTD/sodipodi-0.dtd"
   xmlns="http://www.w3.org/2000/svg"
   xmlns:svg="http://www.w3.org/2000/svg">
  <defs
     id="defs1" />
  <sodipodi:namedview
     id="namedview1"
     pagecolor="#ffffff"
     bordercolor="#000000"
     borderopacity="0.25"
     inkscape:showpageshadow="2"
     inkscape:pageopacity="0.0"
     inkscape:pagecheckerboard="0"
     inkscape:deskcolor="#d1d1d1"
     inkscape:zoom="0.41699277"
     inkscape:cx="267.39073"
     inkscape:cy="643.89606"
     inkscape:window-width="1920"
     inkscape:window-height="1057"
     inkscape:window-x="1912"
     inkscape:window-y="433"
     inkscape:window-maximized="1"
     inkscape:current-layer="g1" />
  <g
     inkscape:groupmode="layer"
     inkscape:label="Image"
     id="g1"
     transform="translate(-0.5987854,0.59881592)">
    <rect
       style="fill:#ffffff;fill-opacity:1"
       id="rect1"
       width="1022.8024"
       height="1025.1976"
       x="0.5987854"
       y="-0.59881592" />
    <path
       style="fill:#104e4e;fill-opacity:1;stroke-width:2.06172"
       d="m 493.97004,1020.9925 c -3.59317,-1.6245 -17.04589,-10.3128 -29.89494,-19.3072 -12.84885,-8.99447 -37.27818,-25.61312 -54.28737,-36.93038 C 268.86935,870.99368 171.42997,804.72689 139.69061,781.0668 c -17.7545,-13.23501 -20.60545,-17.67142 -20.60545,-32.06079 0,-11.14999 0.51605,-12.45938 7.21602,-18.30869 3.96881,-3.46493 23.71061,-16.79828 43.87053,-29.6296 l 36.65471,-23.3296 17.98087,12.91873 c 9.88966,7.10531 25.26907,17.81883 34.17632,23.80772 l 16.19543,10.88877 -18.25262,12.14745 c -10.03872,6.68101 -18.53136,12.9843 -18.87257,14.00733 -0.65646,1.97018 28.68472,22.42554 155.23991,108.22548 43.09016,29.21353 86.95368,59.079 97.47485,66.36783 10.52054,7.28874 19.9694,13.2523 20.99655,13.2523 1.02695,0 10.51045,-5.89181 21.07429,-13.09294 47.47833,-32.36491 245.65275,-165.72811 253.1871,-170.38471 4.95451,-3.06187 -0.33916,-9.44598 -17.65926,-21.29654 l -17.54359,-12.00334 4.72835,-3.59296 c 2.60045,-1.97616 17.86955,-12.55608 33.93118,-23.51083 l 29.20282,-19.91807 34.71051,23.65308 c 19.0907,13.00905 38.1606,26.46734 42.37783,29.90712 14.22734,11.60501 15.18172,31.8243 2.08315,44.13648 -8.01819,7.53703 -41.73951,30.50604 -191.18208,130.22174 -178.96887,119.41734 -178.36231,119.04234 -193.80171,119.83684 -7.62816,0.3926 -14.8749,-0.4956 -18.90371,-2.3171 z m 5.22708,-239.03215 C 495.07698,780.43694 482.55203,772.84816 471.3639,765.0963 402.18761,717.16625 250.12336,615.22366 168.73407,562.2158 123.67435,532.86886 118.0543,527.25356 118.0543,511.57995 c 0,-13.28841 4.54692,-18.20973 37.49094,-40.57837 45.12962,-30.64273 49.16172,-33.06381 52.7617,-31.68246 1.77596,0.68161 17.45638,11.10484 34.84492,23.16302 l 31.61525,21.92392 -18.04645,12.01035 c -9.92553,6.60575 -18.33673,12.8808 -18.69135,13.94465 -0.7919,2.37551 11.01248,10.7028 98.56715,69.53254 37.9874,25.52431 92.26198,62.07078 120.61064,81.21427 28.34865,19.14348 52.64788,34.84163 53.99789,34.88472 1.35022,0.0433 9.70019,-4.8836 18.55548,-10.94774 8.85551,-6.06434 71.10503,-47.78388 138.33258,-92.71041 l 122.23157,-81.68433 -8.83695,-6.42349 c -4.86051,-3.53297 -13.67931,-9.36166 -19.59789,-12.95297 -5.91817,-3.5911 -10.55704,-7.17685 -10.3086,-7.96855 0.24885,-0.79149 15.5965,-11.74995 34.10642,-24.35201 l 33.65408,-22.91272 39.3469,26.41373 c 21.64064,14.5275 41.2874,29.03314 43.65998,32.23459 5.51122,7.43683 5.82917,22.97374 0.6322,30.90497 -2.02466,3.09032 -10.37482,10.53148 -18.55552,16.53603 -28.6109,20.99987 -332.17593,223.96386 -349.90363,233.94589 -13.70199,7.71516 -25.19546,9.62988 -35.32449,5.88477 z m -3.1668,-243.52257 C 492.43653,536.87437 479.4477,528.70645 467.16624,520.287 444.30897,504.61669 342.59729,436.68218 208.76979,347.70039 167.38096,320.18096 130.945,295.26322 127.8015,292.32774 c -11.3974,-10.6426 -12.4128,-29.4692 -2.24089,-41.55748 6.06187,-7.20427 353.14713,-239.408413 368.75745,-246.7033938 11.95592,-5.5870582 22.81459,-6.1484672 33.3976,-1.7266947 4.12117,1.7219478 27.51778,16.4380945 51.99185,32.7021815 24.47468,16.264297 69.54904,46.089555 100.16538,66.278537 162.21224,106.96514 210.70846,139.84113 218.93348,148.41542 8.80459,9.17898 10.59891,19.34058 5.55568,31.46515 -4.90237,11.78582 11.77885,0.17318 -245.10615,170.62633 -64.63494,42.88749 -122.4831,80.59574 -128.55136,83.79574 -12.27631,6.47359 -24.06255,7.43023 -34.67422,2.81425 z m 31.88141,-93.5081 c 8.2708,-5.31656 70.24735,-46.65178 137.72581,-91.85603 117.9271,-78.99997 122.55278,-82.33851 119.20661,-86.036 -1.91493,-2.11574 -37.44208,-26.36364 -78.94987,-53.8841 C 664.3867,185.63289 605.04275,146.21692 574.01881,125.5626 542.99508,104.90808 515.93747,87.477678 513.891,86.82803 c -2.60807,-0.827781 -41.96858,24.40829 -131.5959,84.37322 -145.89888,97.61298 -144.47794,96.64706 -144.58267,98.28015 -0.0887,1.36032 11.06154,8.96539 143.21122,97.68865 51.02757,34.25898 101.06945,68.00192 111.20404,74.98435 10.13459,6.98222 18.94844,12.63814 19.58634,12.56846 0.6379,-0.0701 7.9267,-4.47683 16.1977,-9.79318 z"
       id="path1" />
  </g>
</svg>
