<?xml version="1.0" encoding="UTF-8"?>
<svg version="1.1" xmlns="http://www.w3.org/2000/svg" width="3307" height="1165">
<path d="M0 0 C1.48790039 -0.05798515 1.48790039 -0.05798515 3.00585938 -0.11714172 C7.57622779 -0.25433019 12.14650149 -0.35331875 16.71826172 -0.43066406 C19.12415643 -0.48229062 21.52967175 -0.55722561 23.93408203 -0.65625 C44.97768631 -1.50756604 44.97768631 -1.50756604 49.71459961 2.65283203 C52.05938972 5.75759365 53.69378903 8.78877503 55.34765625 12.30395508 C56.58528025 14.12605721 57.85689831 15.92560982 59.1640625 17.69848633 C60.41501144 19.50291743 61.66364779 21.30895362 62.91015625 23.11645508 C64.30723112 25.1334241 65.70436831 27.15034996 67.1015625 29.16723633 C67.80555176 30.1851123 68.50954102 31.20298828 69.23486328 32.25170898 C72.59688749 37.10865684 75.97268952 41.95599623 79.34765625 46.80395508 C80.67846667 48.71665897 82.00919565 50.62941952 83.33984375 52.54223633 C83.99952148 53.49050293 84.65919922 54.43876953 85.33886719 55.41577148 C87.36574734 58.32996597 89.3919382 61.24463862 91.41796875 64.15942383 C98.2820453 74.03313395 105.15785653 83.89831077 112.05908203 93.74609375 C117.18557799 101.06458367 122.28690069 108.40045426 127.38671875 115.73754883 C131.69546867 121.9344961 136.01607166 128.12295071 140.34765625 134.30395508 C147.35068805 144.29817652 154.31952311 154.31602116 161.28466797 164.33666992 C163.38947267 167.36410144 165.4953464 170.39078659 167.6015625 173.41723633 C168.3023291 174.42423584 169.0030957 175.43123535 169.72509766 176.46875 C171.04369219 178.3635069 172.36236926 180.25820637 173.68115234 182.15283203 C174.29168457 183.03028076 174.9022168 183.90772949 175.53125 184.81176758 C176.43627322 186.04475461 176.43627322 186.04475461 177.35957975 187.30265047 C179.34765625 190.30395508 179.34765625 190.30395508 180.78322199 193.62726576 C182.78072662 197.66238622 184.56166959 200.76840584 188.34765625 203.30395508 C196.51655923 205.88993597 205.65913398 205.03251854 214.11491489 204.91919422 C216.81847284 204.93051738 219.52155513 204.94700239 222.22499564 204.96976498 C228.12663194 205.00902185 234.02666845 204.99991127 239.92827345 204.95939127 C248.76267886 204.89899436 257.59587283 204.91376489 266.43037872 204.94325531 C281.48589175 204.99133403 296.54078946 204.97782351 311.59628105 204.93100166 C326.85545123 204.88379781 342.11426522 204.8649202 357.37350464 204.88075638 C358.33685945 204.88173932 359.30021427 204.88272226 360.29276166 204.88373498 C365.20480953 204.8888778 370.11685677 204.8944829 375.02890394 204.90025128 C410.59389657 204.9410705 446.15862787 204.9189862 481.72358894 204.86364174 C516.94807348 204.80901127 552.17241207 204.78124138 587.39694023 204.78954124 C588.49057261 204.7897867 589.58420498 204.79003215 590.71097773 204.79028504 C600.6995148 204.79254114 610.68805176 204.79512866 620.67658864 204.79811385 C645.50780598 204.80553088 670.33902293 204.80879084 695.17024136 204.80922985 C696.86644499 204.80926484 696.86644499 204.80926484 698.59691536 204.80930054 C753.61403555 204.81007254 808.63110094 204.76295068 863.64819336 204.71191406 C882.74214643 204.69422818 901.83609966 204.67675395 920.93005371 204.66015625 C922.11425049 204.65912666 923.29844727 204.65809707 924.51852881 204.65703627 C979.56116782 204.60946994 1034.60379991 204.59590998 1089.64645735 204.59113122 C1093.21953926 204.59082039 1096.79262116 204.5904949 1100.36570307 204.59016642 C1124.04455495 204.588013 1147.72340684 204.58644592 1171.40225878 204.58527145 C1218.51794599 204.58292935 1265.63363258 204.57714202 1312.74931913 204.56898807 C1314.99312888 204.56859977 1317.23693862 204.56821389 1319.48074836 204.56783042 C1420.50159137 204.55054596 1521.52239733 204.49318122 1622.54321289 204.41845703 C1623.48920205 204.41775755 1624.43519121 204.41705806 1625.40984671 204.41633738 C1672.72245188 204.38132254 1720.03505511 204.34405295 1767.34765625 204.30395508 C1767.78634033 203.1512915 1767.78634033 203.1512915 1768.23388672 201.9753418 C1769.58454208 198.73578217 1771.39126854 196.25823125 1773.47265625 193.42895508 C1774.38040772 192.18134824 1775.28654133 190.9325633 1776.19140625 189.68286133 C1776.94357422 188.64476318 1776.94357422 188.64476318 1777.7109375 187.58569336 C1780.84710457 183.21358456 1783.90545232 178.7870776 1786.97265625 174.36645508 C1787.65328125 173.38652588 1788.33390625 172.40659668 1789.03515625 171.39697266 C1790.43779757 169.37724112 1791.84013847 167.35730093 1793.2421875 165.3371582 C1796.64959336 160.42834438 1800.06075771 155.52214694 1803.47265625 150.61645508 C1804.1373291 149.6606958 1804.80200195 148.70493652 1805.48681641 147.72021484 C1810.33079299 140.75796243 1815.19154253 133.80760779 1820.05908203 126.86181641 C1824.5023344 120.51871228 1828.92752415 114.16318728 1833.34765625 107.80395508 C1838.33514501 100.62846837 1843.3326211 93.46021707 1848.34765625 86.30395508 C1856.04197663 75.32317648 1863.69521907 64.31394484 1871.34765625 53.30395508 C1895.65543421 18.33099415 1895.65543421 18.33099415 1899.66928101 12.75642395 C1901.38276144 10.33126915 1901.38276144 10.33126915 1902.78564453 7.73556519 C1906.81574249 0.93206391 1906.81574249 0.93206391 1910.86961365 -0.73008728 C1913.89276005 -1.23483988 1916.77930661 -1.41825358 1919.84375 -1.48120117 C1920.94592361 -1.53098114 1922.04809723 -1.58076111 1923.18367004 -1.63204956 C1926.72099885 -1.75114251 1930.24595787 -1.77052643 1933.78515625 -1.75854492 C1934.97838501 -1.76298615 1936.17161377 -1.76742737 1937.40100098 -1.77200317 C1959.79982934 -1.64117688 1959.79982934 -1.64117688 1966.7734375 4.65551758 C1970.4250498 9.34427668 1972.73698448 14.54402906 1974.91894531 20.04516602 C1977.33320359 25.55191917 1980.92625554 30.16807009 1984.47265625 34.99145508 C1985.81403015 36.90823503 1987.1500457 38.82877682 1988.48046875 40.75317383 C1992.66186835 46.75886251 1996.85934046 52.75322429 2001.05908203 58.74609375 C2006.18557799 66.06458367 2011.28690069 73.40045426 2016.38671875 80.73754883 C2020.69546867 86.9344961 2025.01607166 93.12295071 2029.34765625 99.30395508 C2037.72603534 111.26097289 2046.05590135 123.25165508 2054.38867188 135.24047852 C2061.92041731 146.07593779 2069.46036552 156.90534427 2077.03491211 167.7109375 C2082.41460064 175.38928316 2087.7648359 183.08803601 2093.10742188 190.79223633 C2094.06745117 192.17475586 2094.06745117 192.17475586 2095.046875 193.58520508 C2095.89511841 194.80820312 2095.89511841 194.80820312 2096.76049805 196.0559082 C2097.81989803 197.55643967 2098.91856599 199.02998824 2100.05395508 200.47387695 C2101.34765625 202.30395508 2101.34765625 202.30395508 2101.34765625 204.30395508 C2186.48765625 204.30395508 2271.62765625 204.30395508 2359.34765625 204.30395508 C2359.34765625 210.57395508 2359.34765625 216.84395508 2359.34765625 223.30395508 C2279.15765625 223.63395508 2198.96765625 223.96395508 2116.34765625 224.30395508 C2122.28765625 232.71895508 2122.28765625 232.71895508 2128.34765625 241.30395508 C2130.97742384 245.07165014 2133.60402304 248.84107393 2136.22265625 252.61645508 C2141.25076057 259.85519146 2146.28901439 267.08652515 2151.34765625 274.30395508 C2157.04625 282.43539124 2162.71954042 290.58419457 2168.38671875 298.73754883 C2172.69546867 304.9344961 2177.01607166 311.12295071 2181.34765625 317.30395508 C2189.72603534 329.26097289 2198.05590135 341.25165508 2206.38867188 353.24047852 C2213.92853659 364.08761849 2221.47778003 374.9278678 2229.05908203 385.74609375 C2234.18557799 393.06458367 2239.28690069 400.40045426 2244.38671875 407.73754883 C2248.69546854 413.93449592 2253.01602929 420.12298053 2257.34765625 426.30395508 C2263.04619422 434.43543049 2268.71954025 442.58419432 2274.38671875 450.73754883 C2278.69546867 456.9344961 2283.01607166 463.12295071 2287.34765625 469.30395508 C2295.72603534 481.26097289 2304.05590135 493.25165508 2312.38867188 505.24047852 C2314.41640462 508.15765299 2316.4444597 511.07460305 2318.47265625 513.99145508 C2319.13185059 514.93972168 2319.79104492 515.88798828 2320.47021484 516.86499023 C2324.31464642 522.39213132 2328.17287453 527.90930567 2332.04199219 533.41918945 C2348.34765625 556.64748536 2348.34765625 556.64748536 2348.34765625 558.30395508 C2341.21327548 558.53267986 2334.07984336 558.68997398 2326.94262695 558.79833984 C2324.51648634 558.84352329 2322.09058977 558.90488552 2319.6652832 558.98291016 C2316.17207656 559.09245322 2312.6821142 559.1432013 2309.1875 559.18286133 C2308.10806625 559.2293129 2307.02863251 559.27576447 2305.91648865 559.32362366 C2298.52358999 559.3285481 2298.52358999 559.3285481 2295.18519592 556.4197998 C2293.38101644 554.12762443 2291.84245154 551.80660793 2290.34765625 549.30395508 C2289.68451416 548.39049316 2289.02137207 547.47703125 2288.33813477 546.53588867 C2287.80631592 545.76583496 2287.27449707 544.99578125 2286.7265625 544.20239258 C2286.10958496 543.31205322 2285.49260742 542.42171387 2284.85693359 541.50439453 C2284.21449707 540.57199951 2283.57206055 539.63960449 2282.91015625 538.67895508 C2281.49745392 536.63855028 2280.08469179 534.59818687 2278.671875 532.55786133 C2277.95563965 531.52161621 2277.2394043 530.48537109 2276.50146484 529.41772461 C2273.08435485 524.47759528 2269.65361634 519.54697089 2266.22265625 514.61645508 C2265.5582251 513.66109863 2264.89379395 512.70574219 2264.20922852 511.72143555 C2259.93286865 505.57465901 2255.64461132 499.43634827 2251.34765625 493.30395508 C2242.96935863 481.34687979 2234.63941146 469.35625551 2226.30664062 457.36743164 C2218.76677591 446.52029166 2211.21753247 435.68004236 2203.63623047 424.86181641 C2198.50973451 417.54332649 2193.40841181 410.2074559 2188.30859375 402.87036133 C2183.99984396 396.67341423 2179.67928321 390.48492963 2175.34765625 384.30395508 C2169.64911828 376.17247966 2163.97577225 368.02371583 2158.30859375 359.87036133 C2153.99984383 353.67341405 2149.67924084 347.48495945 2145.34765625 341.30395508 C2136.96927716 329.34693727 2128.63941115 317.35625507 2120.30664062 305.36743164 C2112.76828396 294.52246119 2105.22108142 283.68400221 2097.640625 272.8684082 C2092.4748758 265.49462335 2087.33522067 258.1028073 2082.203125 250.70556641 C2079.04964801 246.16547337 2075.88229187 241.63716349 2072.66796875 237.13989258 C2072.10480957 236.3505835 2071.54165039 235.56127441 2070.96142578 234.74804688 C2069.91185587 233.28039564 2068.8583485 231.81554954 2067.80029297 230.35400391 C2064.34765625 225.5243145 2064.34765625 225.5243145 2064.34765625 223.30395508 C2031.48067858 222.9273956 1998.6151531 222.66753457 1965.74624592 222.5627001 C1961.86004304 222.55020583 1957.97384404 222.53675212 1954.08764648 222.52270508 C1953.3140213 222.51992486 1952.54039612 222.51714465 1951.74332774 222.51428019 C1939.23978609 222.46706099 1926.73817458 222.34224287 1914.23554211 222.18839897 C1901.39270339 222.03210922 1888.55134989 221.96001334 1875.70755202 221.96497524 C1867.78975794 221.96541278 1859.87801389 221.90133684 1851.96158863 221.75288825 C1845.87565913 221.64582709 1839.79551737 221.6563172 1833.70864677 221.70918465 C1831.22330184 221.71273472 1828.7375629 221.67899862 1826.25334549 221.60405922 C1813.23189351 220.97493094 1813.23189351 220.97493094 1801.92019963 226.42662573 C1797.42368113 231.64773637 1794.09262056 237.4014611 1790.90083325 243.4824121 C1788.42254911 247.98452951 1785.42245598 252.08645647 1782.41015625 256.24145508 C1781.25292183 257.88437815 1780.09771657 259.52873398 1778.9453125 261.17504883 C1778.36152832 262.00633301 1777.77774414 262.83761719 1777.17626953 263.6940918 C1773.8871757 268.38840596 1770.61837687 273.09683025 1767.34765625 277.80395508 C1761.79311653 285.79554826 1756.22212504 293.7753181 1750.63671875 301.74536133 C1746.19334085 308.08873565 1741.7679558 314.44448196 1737.34765625 320.80395508 C1731.79297963 328.79545344 1726.22212541 336.77531758 1720.63671875 344.74536133 C1716.19334085 351.08873565 1711.7679558 357.44448196 1707.34765625 363.80395508 C1702.36016749 370.97944179 1697.3626914 378.14769308 1692.34765625 385.30395508 C1684.65333587 396.28473368 1677.00009343 407.29396531 1669.34765625 418.30395508 C1661.12786916 430.13022291 1652.90164873 441.95166024 1644.63623047 453.74609375 C1640.1929781 460.08919788 1635.76778835 466.44472288 1631.34765625 472.80395508 C1626.36016749 479.97944179 1621.3626914 487.14769308 1616.34765625 494.30395508 C1611.37611997 501.39897276 1606.41909881 508.50391937 1601.47265625 515.61645508 C1600.48193115 517.04066772 1600.48193115 517.04066772 1599.47119141 518.49365234 C1595.97288372 523.52400678 1592.47845571 528.55701652 1588.98828125 533.59301758 C1588.27397949 534.62257568 1587.55967773 535.65213379 1586.82373047 536.71289062 C1585.46472205 538.67181457 1584.10689419 540.63155827 1582.75048828 542.59228516 C1581.82018799 543.93262817 1581.82018799 543.93262817 1580.87109375 545.30004883 C1580.33403809 546.07533936 1579.79698242 546.85062988 1579.24365234 547.64941406 C1578.61797363 548.5254126 1577.99229492 549.40141113 1577.34765625 550.30395508 C1577.07679025 550.9549333 1576.80592425 551.60591152 1576.52685019 552.27661635 C1575.10126143 555.04888366 1573.89805194 556.47095693 1571.34765625 558.30395508 C1564.95978361 559.58344807 1558.58818444 559.39918396 1552.09503937 559.34420395 C1550.06621178 559.35618649 1548.03740236 559.37166578 1546.00862527 559.39033329 C1540.40314397 559.43163034 1534.79866794 559.42279649 1529.19310007 559.40611185 C1523.10624188 559.39667948 1517.01963587 559.43328057 1510.9328723 559.46404862 C1500.25478447 559.51152428 1489.57701158 559.52917806 1478.89884949 559.52676392 C1467.43921042 559.52427767 1455.97978851 559.53898192 1444.52020264 559.57468414 C1443.79682749 559.57692329 1443.07345235 559.57916244 1442.32815674 559.58146944 C1439.38202227 559.59063586 1436.43588815 559.59990926 1433.48975445 559.60932262 C1402.74031875 559.70741002 1371.99097155 559.74799315 1341.24139744 559.76743123 C1337.93045588 559.76952603 1334.61951432 559.77162938 1331.30857277 559.77373791 C1330.07616722 559.77451228 1330.07616722 559.77451228 1328.81886459 559.77530229 C1310.61872405 559.78692083 1292.41860844 559.81155276 1274.21848449 559.83812716 C1266.72610976 559.84902094 1259.23373449 559.85954512 1251.74135923 559.87006974 C1250.91353047 559.87123339 1250.08570171 559.87239704 1249.23278722 559.87359596 C1201.78598372 559.94009778 1154.33919216 559.98751843 1106.89234161 559.9972496 C1105.11629229 559.99762811 1103.34024296 559.99800815 1101.56419363 559.99838974 C1093.54534498 560.00010073 1085.52649631 560.00172223 1077.50764764 560.00334318 C1073.93178817 560.00406957 1070.3559287 560.00480913 1066.78006924 560.00555143 C1064.99028557 560.00591953 1063.2005019 560.00628112 1061.41071823 560.00663621 C1004.82108292 560.0178929 948.23201752 560.10479213 891.64257812 560.25219727 C849.44611669 560.36209024 807.24976434 560.46563492 765.05315399 560.49197769 C764.20377702 560.49251144 763.35440005 560.49304518 762.47928438 560.4935951 C743.83338541 560.50508437 725.18748873 560.51075335 706.54158635 560.51102794 C699.86967517 560.5111867 693.19776405 560.5118145 686.52585294 560.51268603 C684.86603324 560.51290062 683.20621353 560.51309308 681.54639382 560.51326334 C655.09652543 560.51623744 628.64721896 560.57890627 602.19752617 560.67170855 C575.55584996 560.76477271 548.91489707 560.79370555 522.27310021 560.73498509 C518.59084071 560.72687449 514.90858012 560.71945871 511.22631836 560.71245575 C510.14359181 560.71035542 510.14359181 560.71035542 509.03899199 560.70821266 C497.6136347 560.68787278 486.1895804 560.7346412 474.76449134 560.80943397 C463.52700663 560.881597 452.29137515 560.88060603 441.05373075 560.80718468 C435.04227661 560.76996891 429.03538415 560.76447149 423.02428013 560.84704897 C385.48479719 561.3303294 385.48479719 561.3303294 377.61729336 554.03227282 C374.33900806 549.98809091 372.27304996 545.79579752 370.46664518 540.93816188 C368.50992528 536.33185638 365.45787836 532.47745006 362.47265625 528.49145508 C354.05464617 516.47053669 345.68225881 504.4179024 337.30664062 492.36743164 C329.76677591 481.52029166 322.21753247 470.68004236 314.63623047 459.86181641 C309.50973451 452.54332649 304.40841181 445.2074559 299.30859375 437.87036133 C294.99984396 431.67341423 290.67928321 425.48492963 286.34765625 419.30395508 C280.64911828 411.17247966 274.97577225 403.02371583 269.30859375 394.87036133 C264.99984383 388.67341405 260.67924084 382.48495945 256.34765625 376.30395508 C247.96927716 364.34693727 239.63941115 352.35625507 231.30664062 340.36743164 C223.76677591 329.52029166 216.21753247 318.68004236 208.63623047 307.86181641 C203.50973451 300.54332649 198.40841181 293.2074559 193.30859375 285.87036133 C188.43763983 278.86483879 183.54894697 271.87195954 178.65209961 264.88452148 C173.39724297 257.38271418 168.1661389 249.86447223 162.93945312 242.34301758 C162.31232422 241.44067383 161.68519531 240.53833008 161.0390625 239.60864258 C160.49451416 238.82473145 159.94996582 238.04082031 159.38891602 237.2331543 C158.37849243 235.78320068 158.37849243 235.78320068 157.34765625 234.30395508 C156.89946413 233.50296062 156.45127201 232.70196617 155.98949832 231.87669915 C152.9302155 226.62377193 152.9302155 226.62377193 148.01670134 223.36120665 C145.22296472 222.99275881 142.57171775 222.93656277 139.75398254 222.98701477 C138.6988283 222.9664759 137.64367405 222.94593704 136.55654544 222.92477578 C133.02582588 222.86855873 129.49909817 222.88369405 125.96801758 222.89892578 C123.43472044 222.87391074 120.90146136 222.84474912 118.36825562 222.81175232 C112.20389193 222.74407287 106.0409927 222.72390856 99.87630484 222.7287036 C94.86261939 222.73215579 89.84925817 222.71865368 84.83563805 222.69322777 C69.05560543 222.61473925 53.27657003 222.59475993 37.49637606 222.6193461 C25.06558783 222.63646693 12.63716171 222.56449194 0.20694057 222.45100246 C-12.57171839 222.33524427 -25.3492453 222.28303738 -38.12843877 222.29774731 C-45.29711324 222.30479865 -52.46357415 222.286591 -59.63179588 222.20089149 C-66.37802478 222.12089996 -73.11851462 222.13002701 -79.86513138 222.19819069 C-82.33541543 222.20945059 -84.8060309 222.19190387 -87.27585411 222.14287949 C-99.68728006 221.49034451 -99.68728006 221.49034451 -110.80500627 225.97518325 C-114.52786269 229.96231902 -117.16210931 234.40193133 -119.59293139 239.26012361 C-121.08998397 242.14825601 -122.91289336 244.6681927 -124.83203125 247.29223633 C-126.06433883 249.06660326 -127.29611158 250.84134175 -128.52734375 252.61645508 C-133.55544823 259.8551917 -138.59375164 267.08649013 -143.65234375 274.30395508 C-151.346739 285.28468088 -158.99990684 296.2939657 -166.65234375 307.30395508 C-174.87213084 319.13022291 -183.09835127 330.95166024 -191.36376953 342.74609375 C-195.8070219 349.08919788 -200.23221165 355.44472288 -204.65234375 361.80395508 C-210.20702037 369.79545344 -215.77787459 377.77531758 -221.36328125 385.74536133 C-225.80665915 392.08873565 -230.2320442 398.44448196 -234.65234375 404.80395508 C-239.63983251 411.97944179 -244.6373086 419.14769308 -249.65234375 426.30395508 C-257.34666413 437.28473368 -264.99990657 448.29396531 -272.65234375 459.30395508 C-280.87213084 471.13022291 -289.09835127 482.95166024 -297.36376953 494.74609375 C-302.48513601 502.05726091 -307.58149373 509.38569505 -312.67602539 516.71557617 C-317.66747853 523.89469011 -322.67523943 531.0622104 -327.69726562 538.2199707 C-328.21740234 538.96182617 -328.73753906 539.70368164 -329.2734375 540.46801758 C-329.82894287 541.21446533 -330.38444824 541.96091309 -330.95678711 542.72998047 C-332.7924696 545.35554421 -332.7924696 545.35554421 -334.14672852 548.75097656 C-335.99567503 552.70339197 -337.8560058 555.97537369 -341.65234375 558.30395508 C-350.06286578 560.50205119 -359.12541753 559.5184736 -367.71484375 559.11645508 C-370.13070442 559.05119656 -372.54673365 558.99188957 -374.96289062 558.9387207 C-380.8630703 558.79594962 -386.75692431 558.57892021 -392.65234375 558.30395508 C-390.95952572 553.82960281 -388.64639913 550.13531688 -385.90234375 546.24145508 C-385.41918701 545.54737549 -384.93603027 544.8532959 -384.43823242 544.13818359 C-382.8479693 541.85654558 -381.25048462 539.58008068 -379.65234375 537.30395508 C-378.55959361 535.74166642 -377.46714958 534.17916362 -376.375 532.61645508 C-374.04659584 529.28669553 -371.7153778 525.95892571 -369.3828125 522.63208008 C-365.50206091 517.09372103 -361.63803292 511.54381181 -357.77734375 505.99145508 C-357.1114624 505.03384277 -356.44558105 504.07623047 -355.75952148 503.08959961 C-353.72356451 500.16121197 -351.68789881 497.2326221 -349.65234375 494.30395508 C-341.43255666 482.47768725 -333.20633623 470.65624992 -324.94091797 458.86181641 C-320.4976656 452.51871228 -316.07247585 446.16318728 -311.65234375 439.80395508 C-306.66485499 432.62846837 -301.6673789 425.46021707 -296.65234375 418.30395508 C-288.95802337 407.32317648 -281.30478093 396.31394484 -273.65234375 385.30395508 C-265.43255666 373.47768725 -257.20633623 361.65624992 -248.94091797 349.86181641 C-244.4976656 343.51871228 -240.07247585 337.16318728 -235.65234375 330.80395508 C-230.66485499 323.62846837 -225.6673789 316.46021707 -220.65234375 309.30395508 C-212.95802337 298.32317648 -205.30478093 287.31394484 -197.65234375 276.30395508 C-194.94438404 272.40786185 -192.23609096 268.51200085 -189.52734375 264.61645508 C-188.86959961 263.67036377 -188.21185547 262.72427246 -187.53417969 261.74951172 C-184.27949592 257.07060214 -181.01883964 252.39603322 -177.74609375 247.72973633 C-177.11977051 246.83665771 -176.49344727 245.9435791 -175.84814453 245.0234375 C-174.68084683 243.36014001 -173.5126349 241.69748352 -172.34326172 240.03564453 C-171.81361816 239.28114014 -171.28397461 238.52663574 -170.73828125 237.74926758 C-170.28501465 237.10489746 -169.83174805 236.46052734 -169.36474609 235.79663086 C-166.75240236 231.9939463 -164.21147519 228.14265224 -161.65234375 224.30395508 C-255.70234375 223.97395508 -349.75234375 223.64395508 -446.65234375 223.30395508 C-446.65234375 217.03395508 -446.65234375 210.76395508 -446.65234375 204.30395508 C-444.3483738 204.31834751 -444.3483738 204.31834751 -441.997859 204.3330307 C-405.51842638 204.55733146 -369.03949791 204.69887412 -332.55938129 204.73881808 C-328.06717457 204.74380897 -323.57496899 204.7494967 -319.08276367 204.75561523 C-318.18846466 204.75682159 -317.29416564 204.75802794 -316.37276665 204.75927085 C-301.90125509 204.78045294 -287.43057006 204.85805587 -272.95940211 204.95659441 C-258.10520171 205.05648207 -243.25173455 205.09554236 -228.39720374 205.07840395 C-219.23398881 205.06974119 -210.07348425 205.10824271 -200.91079263 205.20752311 C-194.62333608 205.27109942 -188.33755403 205.27546675 -182.04992153 205.23380733 C-178.42352743 205.2115128 -174.80204686 205.21480718 -171.17622757 205.28861809 C-157.18688902 206.16736914 -157.18688902 206.16736914 -144.43346238 201.72534943 C-140.84780393 198.01971777 -138.54435895 193.89280866 -136.50858939 189.18777561 C-135.33951718 186.61570735 -133.76617112 184.43095085 -132.078125 182.17504883 C-131.56443359 181.44286133 -131.05074219 180.71067383 -130.52148438 179.95629883 C-130.00779297 179.22540039 -129.49410156 178.49450195 -128.96484375 177.74145508 C-123.84390791 170.44054543 -118.74162834 163.12696203 -113.65234375 155.80395508 C-108.09772753 147.81241486 -102.52681275 139.83259235 -96.94140625 131.86254883 C-92.49802835 125.5191745 -88.0726433 119.16342819 -83.65234375 112.80395508 C-78.66485499 105.62846837 -73.6673789 98.46021707 -68.65234375 91.30395508 C-60.95802337 80.32317648 -53.30478093 69.31394484 -45.65234375 58.30395508 C-19.22371962 20.27961405 -19.22371962 20.27961405 -9.83984375 7.11645508 C-9.42492676 6.53371826 -9.01000977 5.95098145 -8.58251953 5.35058594 C-4.89026857 0.18951982 -4.89026857 0.18951982 0 0 Z M20.34765625 37.30395508 C19.34745812 38.64628065 18.39492148 40.02411873 17.4609375 41.41333008 C16.55879517 42.74775146 16.55879517 42.74775146 15.63842773 44.10913086 C14.98559814 45.08092285 14.33276855 46.05271484 13.66015625 47.05395508 C12.28356124 49.08849242 10.90593531 51.12233256 9.52734375 53.15551758 C8.82706055 54.18837891 8.12677734 55.22124023 7.40527344 56.28540039 C4.40140889 60.69211388 1.34982512 65.0643882 -1.71484375 69.42895508 C-2.28887939 70.24678467 -2.86291504 71.06461426 -3.4543457 71.90722656 C-4.61158419 73.5548836 -5.76921539 75.20226489 -6.92724609 76.84936523 C-9.7986972 80.93506711 -12.66328084 85.02557206 -15.52734375 89.11645508 C-16.10121826 89.93605713 -16.67509277 90.75565918 -17.26635742 91.60009766 C-24.41766675 101.81894492 -31.53387666 112.06221798 -38.65234375 122.30395508 C-46.86911426 134.1258828 -55.09112932 145.94382855 -63.35498047 157.73291016 C-68.5710808 165.17781564 -73.75682667 172.64368999 -78.9375 180.11328125 C-81.89071173 184.36434798 -84.85372397 188.60542085 -87.88671875 192.80004883 C-88.36077148 193.45569824 -88.83482422 194.11134766 -89.32324219 194.78686523 C-90.18140709 195.96818187 -91.04375087 197.14647923 -91.91113281 198.32104492 C-94.03897641 201.02984736 -94.03897641 201.02984736 -94.65234375 204.30395508 C-18.42234375 204.30395508 57.80765625 204.30395508 136.34765625 204.30395508 C134.80947644 201.22759547 133.28831324 198.61935835 131.36328125 195.80395508 C130.4662146 194.48923218 130.4662146 194.48923218 129.55102539 193.14794922 C128.90641357 192.20943115 128.26180176 191.27091309 127.59765625 190.30395508 C126.92661865 189.32354248 126.25558105 188.34312988 125.56420898 187.33300781 C120.07616412 179.32995801 114.5231131 171.37350191 108.9453125 163.43286133 C105.06143355 157.90238065 101.2038896 152.3537326 97.34765625 146.80395508 C92.3602906 139.62838349 87.36274011 132.46018205 82.34765625 125.30395508 C76.64911828 117.17247966 70.97577225 109.02371583 65.30859375 100.87036133 C60.99984347 94.67341354 56.67912016 88.48504439 52.34765625 82.30395508 C47.21487338 74.97604763 42.08776659 67.64421255 36.97265625 60.30395508 C35.95643188 58.84590454 35.95643188 58.84590454 34.91967773 57.35839844 C30.73247762 51.33622402 26.6184087 45.27832645 22.6328125 39.12036133 C21.99666016 38.22124023 21.99666016 38.22124023 21.34765625 37.30395508 C21.01765625 37.30395508 20.68765625 37.30395508 20.34765625 37.30395508 Z M1933.34765625 38.30395508 C1931.9965392 39.83063423 1931.9965392 39.83063423 1930.65234375 41.87036133 C1930.10980957 42.65386963 1929.56727539 43.43737793 1929.00830078 44.24462891 C1928.12440674 45.54243286 1928.12440674 45.54243286 1927.22265625 46.86645508 C1926.60374512 47.76323975 1925.98483398 48.66002441 1925.34716797 49.58398438 C1924.0212674 51.50519739 1922.6979496 53.42819492 1921.37695312 55.3527832 C1918.75265008 59.16926242 1916.10539829 62.9694847 1913.45703125 66.76928711 C1911.44443954 69.65694022 1909.43468786 72.54654977 1907.42578125 75.43676758 C1906.75353516 76.40388672 1906.08128906 77.37100586 1905.38867188 78.36743164 C1904.37836914 79.82101074 1904.37836914 79.82101074 1903.34765625 81.30395508 C1895.12786916 93.13022291 1886.90164873 104.95166024 1878.63623047 116.74609375 C1874.1929781 123.08919788 1869.76778835 129.44472288 1865.34765625 135.80395508 C1860.36016749 142.97944178 1855.36269519 150.14769574 1850.34765625 157.30395508 C1843.24659326 167.43798681 1836.17809705 177.59451193 1829.11865234 187.75756836 C1827.52779382 190.04494834 1825.93295255 192.32946526 1824.3359375 194.61254883 C1823.90643799 195.22815674 1823.47693848 195.84376465 1823.03442383 196.47802734 C1821.94227337 198.04334565 1820.8481815 199.60730892 1819.75390625 201.17114258 C1818.25591313 203.01731756 1818.25591313 203.01731756 1818.34765625 204.30395508 C1894.90765625 204.30395508 1971.46765625 204.30395508 2050.34765625 204.30395508 C2046.25224743 197.86831265 2042.21497447 191.54864358 2037.78515625 185.36645508 C2036.7365897 183.89147146 2035.68842939 182.41619897 2034.640625 180.94067383 C2033.83117432 179.80251221 2033.83117432 179.80251221 2033.00537109 178.64135742 C2030.18583691 174.6657727 2027.39140833 170.67268154 2024.59765625 166.67895508 C2024.01814209 165.85081299 2023.43862793 165.0226709 2022.84155273 164.16943359 C2017.65058306 156.74638234 2012.47945356 149.30957147 2007.30957031 141.87182617 C2003.0005457 135.67435541 1998.67961995 129.48541013 1994.34765625 123.30395508 C1988.64911828 115.17247966 1982.97577225 107.02371583 1977.30859375 98.87036133 C1972.9998436 92.67341371 1968.67916255 86.48501456 1964.34765625 80.30395508 C1959.17132539 72.91484726 1954.00442997 65.51922692 1948.84765625 58.11645508 C1948.18894531 57.1722168 1947.53023437 56.22797852 1946.8515625 55.25512695 C1946.22121094 54.34956055 1945.59085938 53.44399414 1944.94140625 52.51098633 C1944.33683594 51.64296387 1943.73226562 50.77494141 1943.109375 49.88061523 C1940.8645124 46.59731702 1938.71577589 43.25517769 1936.59179688 39.89257812 C1935.97594727 39.10620972 1935.97594727 39.10620972 1935.34765625 38.30395508 C1934.68765625 38.30395508 1934.02765625 38.30395508 1933.34765625 38.30395508 Z M202.34765625 223.30395508 C206.47234076 230.79448317 206.47234076 230.79448317 211.18359375 237.68286133 C215.22536529 243.12836757 219.11335405 248.66561585 222.97265625 254.24145508 C224.38125898 256.27157748 225.79011768 258.30152229 227.19921875 260.33129883 C227.89692383 261.33660645 228.59462891 262.34191406 229.31347656 263.37768555 C232.31399207 267.69407763 235.32997656 271.99955343 238.34765625 276.30395508 C246.72628002 288.26080023 255.05590227 300.2516564 263.38867188 312.24047852 C270.92853659 323.08761849 278.47778003 333.9278678 286.05908203 344.74609375 C291.18557799 352.06458367 296.28690069 359.40045426 301.38671875 366.73754883 C305.69546867 372.9344961 310.01607166 379.12295071 314.34765625 385.30395508 C322.72603534 397.26097289 331.05590135 409.25165508 339.38867188 421.24047852 C346.36115847 431.27136647 353.33746383 441.29936915 360.34765625 451.30395508 C366.66498209 460.31971748 372.95537243 469.35402577 379.23828125 478.39379883 C382.05801069 482.45071504 384.88127911 486.50513787 387.70703125 490.55786133 C388.42133301 491.58290771 389.13563477 492.6079541 389.87158203 493.6640625 C391.22862874 495.61132834 392.58632973 497.55813844 393.94482422 499.50439453 C394.56502441 500.39473389 395.18522461 501.28507324 395.82421875 502.20239258 C396.36127441 502.97244629 396.89833008 503.7425 397.45166016 504.53588867 C399.34765625 507.30395508 399.34765625 507.30395508 400.19242402 509.50242152 C401.57878297 512.49469567 402.7889745 514.19226898 405.34765625 516.30395508 C411.50211778 517.73260856 417.62858066 517.52654269 423.91869545 517.45887184 C425.8730934 517.47068443 427.82747083 517.48643468 429.78180879 517.50577408 C435.18073951 517.5476424 440.578301 517.5331213 445.97729004 517.50977396 C451.84008222 517.49421661 457.70258539 517.53052601 463.56529081 517.56029069 C473.84990342 517.60521113 484.13416563 517.61665724 494.41886139 517.60559464 C505.45602067 517.59385413 516.49290937 517.60152107 527.53003311 517.63291168 C528.22677182 517.63487808 528.92351053 517.63684448 529.64136253 517.63887046 C532.4790157 517.64693671 535.31666845 517.65513091 538.15432077 517.66349026 C566.97492557 517.74827214 595.79537684 517.7740174 624.61609306 517.77554861 C628.59996964 517.77576191 632.58384622 517.77602379 636.5677228 517.77633715 C637.35899908 517.77639513 638.15027536 517.77645312 638.96552972 517.77651287 C656.49387023 517.77809971 674.02218237 517.79602593 691.55050901 517.81695413 C695.55172694 517.82171647 699.55294502 517.8263473 703.55416309 517.83098357 C704.3486918 517.8319046 705.14322051 517.83282564 705.96182585 517.83377458 C707.56912196 517.83563645 709.17641807 517.83749664 710.78371418 517.83935514 C712.39374261 517.84121724 714.00377104 517.84308286 715.61379946 517.84495199 C761.3078397 517.89790241 807.00186012 517.9314106 852.69593239 517.92394447 C854.40632978 517.92367628 856.11672718 517.92340818 857.82712457 517.92314015 C866.40993646 517.92176758 874.99274831 517.92021393 883.57556017 517.91863389 C886.15887331 517.9181626 888.74218646 517.91769218 891.32549961 517.91722255 C893.04912767 517.91690618 894.77275572 517.91658456 896.49638378 517.9162577 C950.99860584 517.9059607 1005.50034574 517.96471697 1060.00244141 518.08081055 C1073.73353252 518.11003955 1087.46462405 518.13900613 1101.19571877 518.16649818 C1102.04117947 518.16819162 1102.88664018 518.16988506 1103.75772091 518.17162982 C1129.81333267 518.22350168 1155.86890468 518.25454393 1181.92456627 518.26421165 C1182.74254923 518.26451768 1183.56053219 518.2648237 1184.40330251 518.26513899 C1202.35960803 518.27165256 1220.31591092 518.27310868 1238.27221724 518.26990665 C1244.69727414 518.26880561 1251.12233108 518.26807619 1257.54738805 518.2675261 C1259.14580174 518.2673854 1260.74421544 518.26722503 1262.34262913 518.26704492 C1287.81776064 518.26436128 1313.29249628 518.31138737 1338.76751745 518.38312559 C1364.42529267 518.45499525 1390.08250762 518.47189326 1415.74033511 518.41393191 C1419.28584675 518.40592431 1422.8313594 518.39850219 1426.37687302 518.39142609 C1427.07189017 518.39001518 1427.76690731 518.38860428 1428.48298559 518.38715062 C1439.48815017 518.36635376 1450.49235708 518.40258639 1461.49734674 518.46256459 C1472.31913619 518.52034953 1483.13943667 518.51602129 1493.96118515 518.45001341 C1499.75094002 518.41644533 1505.53728373 518.40992215 1511.32681103 518.4780782 C1516.595374 518.53955484 1521.85767813 518.52271342 1527.12595137 518.44350661 C1529.01889479 518.42873328 1530.91233002 518.44241974 1532.80477931 518.4881222 C1542.70695863 518.87373487 1542.70695863 518.87373487 1551.26947908 514.61939627 C1554.85558818 510.53099062 1557.62491669 506.04062198 1560.23710208 501.28626152 C1561.65721991 498.75139307 1563.3028409 496.41889912 1565.01953125 494.07739258 C1566.0460196 492.61155944 1567.07206524 491.14541619 1568.09765625 489.67895508 C1568.6714502 488.85886963 1569.24524414 488.03878418 1569.83642578 487.19384766 C1577.02673073 476.91107356 1584.18653448 466.60706185 1591.34765625 456.30395508 C1599.56744334 444.47768725 1607.79366377 432.65624992 1616.05908203 420.86181641 C1620.5023344 414.51871228 1624.92752415 408.16318728 1629.34765625 401.80395508 C1634.33514501 394.62846837 1639.3326211 387.46021707 1644.34765625 380.30395508 C1652.04197663 369.32317648 1659.69521907 358.31394484 1667.34765625 347.30395508 C1675.56744334 335.47768725 1683.79366377 323.65624992 1692.05908203 311.86181641 C1696.5023344 305.51871228 1700.92752415 299.16318728 1705.34765625 292.80395508 C1710.8993182 284.81679392 1716.46643829 276.84075855 1722.04980469 268.87573242 C1727.26568125 261.43103864 1732.44969287 253.96434858 1737.6328125 246.49682617 C1741.90102683 240.35653263 1746.20658264 234.24579906 1750.60644531 228.19897461 C1752.5302966 225.96633718 1752.5302966 225.96633718 1753.34765625 223.30395508 C1241.51765625 223.30395508 729.68765625 223.30395508 202.34765625 223.30395508 Z " fill="#231F20" transform="translate(717.65234375,284.696044921875)"/>
<path d="M0 0 C16.5 0 33 0 50 0 C61 16 61 16 66.1875 23.5625 C73.40859341 34.07611268 80.71007789 44.53406909 88 55 C103.582782 77.37175066 103.582782 77.37175066 110.78955078 87.88037109 C117.47668887 97.62124469 124.24692077 107.30479893 131 117 C146.55337956 139.32953843 146.55337956 139.32953843 152.5 148 C157.16951708 154.80412759 161.86042971 161.59332846 166.5625 168.375 C167.26632812 169.39335938 167.97015625 170.41171875 168.6953125 171.4609375 C169.35402344 172.4096875 170.01273438 173.3584375 170.69140625 174.3359375 C171.28123291 175.18720215 171.87105957 176.0384668 172.47875977 176.91552734 C173.97377509 179.07666444 173.97377509 179.07666444 176 181 C176.391875 180.40058594 176.78375 179.80117188 177.1875 179.18359375 C182.63732904 170.92663294 188.28283581 162.81174893 193.94140625 154.69702148 C197.81329219 149.14418135 201.67352572 143.58422644 205.5 138 C210.66181087 130.47001467 215.87996016 122.97961028 221.09765625 115.48828125 C224.91571585 110.00389583 228.72142379 104.51165624 232.5 99 C240.30565165 87.6176825 248.21419526 76.30651299 256.10253906 64.98144531 C263.014465 55.05704209 269.92578388 45.13292569 276.76318359 35.15698242 C281.64510083 28.04262607 286.58275499 20.96697971 291.51953125 13.890625 C292.17179687 12.95476563 292.8240625 12.01890625 293.49609375 11.0546875 C294.36512329 9.80921143 294.36512329 9.80921143 295.25170898 8.53857422 C297.19779139 5.7128006 299.09678545 2.85482182 301 0 C317.17 0 333.34 0 350 0 C350 86.46 350 172.92 350 262 C336.14 262 322.28 262 308 262 C307.67 197.65 307.34 133.3 307 67 C302.71 73.27 298.42 79.54 294 86 C291.29723069 89.8999853 288.59159978 93.79723751 285.875 97.6875 C281.39720055 104.11179759 276.92749468 110.54091777 272.5 117 C267.33954693 124.52771478 262.12325611 132.0161932 256.90673828 139.50512695 C253.04404761 145.05321355 249.19612863 150.61071767 245.375 156.1875 C240.69414526 163.01787112 235.94620855 169.80016181 231.19091797 176.57885742 C228.07376125 181.02602944 224.96340799 185.47700942 221.90200806 189.96281433 C221.02492204 191.23726282 220.13876568 192.50556977 219.23934937 193.76435852 C216.64703109 197.42468165 214.38071901 201.09875653 212.30126953 205.07495117 C204.9596426 218.30314867 204.9596426 218.30314867 198.25500488 221.17633057 C191.80532626 222.72930527 185.41115228 222.72342932 178.81347656 222.44262695 C175.36140867 222.31198564 171.95260558 222.38040194 168.5 222.47070312 C153.22870401 222.4614993 153.22870401 222.4614993 147.81964111 218.33773804 C144.12490654 214.40160617 141.5545596 209.99061896 139.14907837 205.18571472 C137.2850052 201.63997556 134.95233514 198.4400205 132.625 195.1875 C131.72117816 193.86861018 130.81748734 192.54963054 129.9140625 191.23046875 C126.64061252 186.46507664 123.32044484 181.73271196 120 177 C115.40737617 170.45254168 110.84468849 163.88650482 106.32421875 157.2890625 C102.24387055 151.3400331 98.12321872 145.41937244 94 139.5 C89.48147467 133.01257592 84.97035379 126.52072419 80.5 120 C74.93032999 111.87822423 69.30380035 103.79625353 63.67578125 95.71484375 C56.78032779 85.81235044 49.89089706 75.90566453 43 66 C42.67 130.68 42.34 195.36 42 262 C28.14 262 14.28 262 0 262 C0 175.54 0 89.08 0 0 Z " fill="#231F20" transform="translate(1159,530)"/>
<path d="M0 0 C26.874375 -0.04125 53.74875 -0.0825 81.4375 -0.125 C89.87626709 -0.14320801 98.31503418 -0.16141602 107.00952148 -0.18017578 C117.43371582 -0.18920898 117.43371582 -0.18920898 122.33680725 -0.19088745 C125.71073621 -0.19272662 129.08460016 -0.200123 132.45851135 -0.21115112 C175.79809451 -0.34633163 219.20374018 1.08791914 256 27 C256.96164062 27.67675781 257.92328125 28.35351562 258.9140625 29.05078125 C287.28962308 49.69088539 307.53418431 77.94019576 313.60742188 112.90332031 C314.35731502 118.81852221 314.33919649 124.73267926 314.3125 130.6875 C314.31001251 131.35085358 314.30752502 132.01420715 314.30496216 132.69766235 C314.10395743 167.3618421 299.2971065 196.7028935 275 221 C271.47080261 224.20089996 267.8081948 227.13862286 264 230 C263.0615625 230.71542969 262.123125 231.43085937 261.15625 232.16796875 C236.11158772 250.40280662 204.38990403 262.25384515 173.16650391 262.12025452 C172.42232712 262.12111053 171.67815033 262.12196655 170.91142273 262.12284851 C168.4331109 262.12449148 165.95486805 262.11900011 163.4765625 262.11352539 C161.66336062 262.11321879 159.85015862 262.113353 158.03695679 262.11389065 C153.19546502 262.11411576 148.35399812 262.10833343 143.51251221 262.10128021 C138.96406987 262.09557171 134.41563348 262.09531635 129.8671875 262.09460449 C116.57812172 262.08936388 103.28906055 262.07540267 90 262.0625 C60.3 262.041875 30.6 262.02125 0 262 C0 175.54 0 89.08 0 0 Z M42 26 C42 94.97 42 163.94 42 235 C72.6590625 235.0928125 72.6590625 235.0928125 103.9375 235.1875 C113.57247681 235.22846802 113.57247681 235.22846802 123.40209961 235.27026367 C129.22437047 235.28030486 129.22437047 235.28030486 135.04664612 235.28633118 C138.28335248 235.29208985 141.51980838 235.30916597 144.75645113 235.32906789 C161.72968599 235.41734515 177.93500061 234.98167861 194.125 229.3125 C194.86161865 229.05976318 195.5982373 228.80702637 196.35717773 228.54663086 C207.6427927 224.51146256 217.89219276 218.82476297 227 211 C227.6496875 210.49339844 228.299375 209.98679687 228.96875 209.46484375 C247.16508626 194.77058014 257.90077685 170.16849682 260.77294922 147.42919922 C263.57092368 117.49388108 258.46103048 86.70799188 239.18237305 62.83886719 C220.01497717 39.91488327 191.00284937 29.87218745 162 27 C161.23089294 26.91736404 160.46178589 26.83472809 159.66937256 26.74958801 C147.90954289 25.65374512 136.12312363 25.87473557 124.32421875 25.90234375 C122.21276882 25.90381684 120.10131853 25.90483529 117.98986816 25.90539551 C110.22240648 25.91060583 102.45495266 25.92456703 94.6875 25.9375 C77.300625 25.958125 59.91375 25.97875 42 26 Z " fill="#231F20" transform="translate(1938,530)"/>
<path d="M0 0 C520.74 0 1041.48 0 1578 0 C1572.06756334 14.83109165 1572.06756334 14.83109165 1566 19 C1557.95369971 21.71818808 1548.90454044 20.86801535 1540.53529835 20.74780941 C1537.87699758 20.76089751 1535.21925804 20.77954126 1532.56109956 20.80493119 C1526.76179816 20.84909929 1520.96436891 20.84124692 1515.16507653 20.79947358 C1506.48382353 20.73720817 1497.80402068 20.75586839 1489.12267938 20.79025023 C1474.32759741 20.84648076 1459.53322465 20.83626816 1444.7381382 20.79000092 C1429.74381556 20.74335908 1414.74992079 20.72714837 1399.75553513 20.74814796 C1398.80871344 20.74945398 1397.86189176 20.75075999 1396.88637851 20.75210558 C1393.03016859 20.7575295 1389.17395908 20.7631765 1385.3177499 20.76910487 C1349.39418206 20.82432785 1313.47094295 20.81126081 1277.54738808 20.75530815 C1242.92660492 20.70146706 1208.30596752 20.67262162 1173.68514061 20.6787281 C1171.5121171 20.67907764 1169.33909358 20.67942488 1167.16607007 20.67976982 C1158.43393269 20.68119852 1149.70179537 20.68280529 1140.96965807 20.68463794 C1116.55901926 20.6896944 1092.14838153 20.69003272 1067.73774242 20.6868372 C1066.07026362 20.68662153 1066.07026362 20.68662153 1064.36909838 20.68640151 C1028.94044386 20.681498 993.51183496 20.65612806 958.08320332 20.61614895 C956.35923372 20.61420541 956.35923372 20.61420541 954.60043645 20.61222261 C935.93552723 20.59109837 917.27061948 20.56874437 898.60571179 20.54631834 C824.5677342 20.45743866 750.52997061 20.42513063 676.49194336 20.44799805 C671.81293419 20.44942675 667.13392503 20.45084912 662.45491586 20.45227229 C661.29805284 20.45262487 660.14118983 20.45297746 658.94927036 20.45334073 C646.13783562 20.45723791 633.32640084 20.46098609 620.51496601 20.46455288 C618.79170152 20.4650391 618.79170152 20.4650391 617.0336236 20.46553514 C555.04243486 20.48286195 493.05127095 20.45719478 431.06009549 20.41618115 C428.8752546 20.41474554 426.69041371 20.41331144 424.50557282 20.41187887 C423.42553171 20.41117027 422.3454906 20.41046167 421.23272096 20.4097316 C419.05373841 20.40830328 416.87475586 20.40687669 414.69577331 20.40545184 C409.26721274 20.40190055 403.83865219 20.39831498 398.41009169 20.39465814 C374.5988316 20.37875938 350.78758809 20.36855541 326.97632241 20.37358737 C325.9025595 20.373812 324.8287966 20.37403663 323.72249542 20.37426807 C318.31592706 20.37542955 312.90935873 20.37668388 307.5027904 20.37796863 C268.46100341 20.38717605 229.41941934 20.36704339 190.3776919 20.29469716 C186.53521538 20.28769956 182.69273864 20.2808361 178.85026169 20.27407646 C177.90722745 20.27240297 176.96419321 20.27072948 175.99258217 20.26900527 C161.03466933 20.24325233 146.07692269 20.24761917 131.1190034 20.26433164 C116.42614065 20.28009825 101.7336059 20.26383721 87.04081924 20.21302465 C78.41701107 20.18415091 69.79403416 20.18001122 61.17023158 20.21184107 C55.45061751 20.23050376 49.73168462 20.21682368 44.01218488 20.17628476 C40.76440159 20.15418118 37.51863802 20.15123079 34.27083983 20.17804514 C30.78417034 20.20466074 27.30217468 20.17640106 23.81576425 20.13389581 C22.30814897 20.16528482 22.30814897 20.16528482 20.77007682 20.19730795 C16.55718086 20.09462749 14.02328368 19.94210839 10.84909479 17.01972231 C9.06343576 14.75062187 7.50405335 12.46240578 6 10 C5.34128906 9.071875 4.68257812 8.14375 4.00390625 7.1875 C3.52824219 6.465625 3.05257812 5.74375 2.5625 5 C2.06878906 4.2575 1.57507813 3.515 1.06640625 2.75 C0 1 0 1 0 0 Z " fill="#57585A" transform="translate(906,489)"/>
<path d="M0 0 C13.86 0 27.72 0 42 0 C42 86.46 42 172.92 42 262 C28.14 262 14.28 262 0 262 C0 175.54 0 89.08 0 0 Z " fill="#231F20" transform="translate(1700,530)"/>
<path d="M0 0 C99 0 198 0 300 0 C298.68 2.31 297.36 4.62 296 7 C295.53891122 8.07603107 295.07782244 9.15206215 294.60276127 10.26070023 C292.60977244 14.01254055 290.68985504 16.86729718 287 19 C278.85307161 21.18898034 270.04899087 20.54799608 261.69157135 20.39278746 C258.17636859 20.34074619 254.66141492 20.35851727 251.14593506 20.36761475 C245.06237676 20.37389373 238.98036809 20.33639094 232.89719963 20.26876068 C224.10234751 20.17104688 215.30824127 20.13996491 206.51290519 20.12490478 C192.24198447 20.09867007 177.97188893 20.01889139 163.70141602 19.90527344 C149.84273393 19.7950491 135.98427633 19.71014604 122.12524414 19.65917969 C121.27034092 19.65602701 120.4154377 19.65287432 119.53462832 19.64962611 C115.24563699 19.63396515 110.95664408 19.61880077 106.6676501 19.60388327 C71.11117288 19.47957266 35.5556762 19.26740072 0 19 C0 12.73 0 6.46 0 0 Z " fill="#57585A" transform="translate(271,489)"/>
<path d="M0 0 C84.81 0 169.62 0 257 0 C257 6.27 257 12.54 257 19 C225.95888046 19.31669482 194.91834337 19.56724208 163.87599707 19.71491461 C160.20866982 19.73242386 156.54134583 19.75054444 152.87402344 19.76904297 C152.14394592 19.77271531 151.41386841 19.77638766 150.66166733 19.78017129 C138.85033787 19.84104006 127.03996534 19.95139367 115.229203 20.08013915 C103.1041814 20.21120485 90.97965984 20.28885229 78.85395896 20.31723893 C71.37505397 20.33642135 63.8988536 20.39692182 56.42078166 20.51083054 C50.67991768 20.59380634 44.94077427 20.60233851 39.19943047 20.58350754 C36.84912808 20.58735326 34.49872159 20.61512935 32.14903069 20.66887665 C14.88393042 21.04436721 14.88393042 21.04436721 10.0677886 17.63028955 C5.05261135 12.59691676 2.61079815 6.52699536 0 0 Z " fill="#57585A" transform="translate(2820,489)"/>
<path d="M0 0 C2.28746145 -0.02390347 4.57486768 -0.05370672 6.86218262 -0.08894348 C13.05737427 -0.16542117 19.24941202 -0.15322822 25.44487524 -0.1202209 C30.62388048 -0.10081577 35.80230393 -0.12516212 40.98125947 -0.14950377 C53.90134251 -0.20961969 66.81948196 -0.18503241 79.73945059 -0.12038136 C90.24172427 -0.07011589 100.74119581 -0.10200831 111.24316406 -0.19238281 C123.46219572 -0.29753097 135.67911325 -0.3443662 147.89863694 -0.30975825 C154.35856534 -0.29188337 160.81610918 -0.29791806 167.27575302 -0.36619377 C173.35334534 -0.42722192 179.42516402 -0.40496837 185.50241089 -0.31980705 C187.72589565 -0.30219466 189.94982991 -0.31323702 192.17297745 -0.35577774 C208.51789576 -0.64325676 208.51789576 -0.64325676 213.69796991 3.59729075 C217.64369417 7.90733317 223.57470703 14.71357091 223.57470703 20.85913086 C138.43470703 20.85913086 53.29470703 20.85913086 -34.42529297 20.85913086 C-26.95896195 2.19330331 -19.49939958 -0.22847528 0 0 Z " fill="#57585A" transform="translate(2557.42529296875,487.140869140625)"/>
<path d="M0 0 C2.29347002 -0.01355438 4.58691827 -0.03136183 6.88032532 -0.05310059 C13.103933 -0.09868244 19.32588271 -0.08101828 25.5495193 -0.04930973 C32.06410984 -0.02398529 38.57855877 -0.04747394 45.09315491 -0.06317139 C56.73515475 -0.08252944 68.3763982 -0.05145701 80.01827884 -0.00057802 C90.56496834 0.04408855 101.11055698 0.03634708 111.65722656 -0.00976562 C123.91506727 -0.06333519 136.17212428 -0.08317241 148.43007952 -0.05364299 C154.91501418 -0.03806032 161.39919123 -0.03595145 167.88407707 -0.06900787 C173.982505 -0.09792277 180.07885717 -0.07781424 186.17706108 -0.02006531 C188.41351374 -0.0068557 190.65014146 -0.01061919 192.8865242 -0.03269196 C209.65435193 -0.18291424 209.65435193 -0.18291424 214.82162666 3.2898941 C216.99853716 5.89226974 218.38030409 8.23894427 219.85180664 11.29394531 C221.50180664 14.26394531 223.15180664 17.23394531 224.85180664 20.29394531 C139.38180664 20.29394531 53.91180664 20.29394531 -34.14819336 20.29394531 C-32.49819336 17.32394531 -30.84819336 14.35394531 -29.14819336 11.29394531 C-28.7387017 10.29704304 -28.32921003 9.30014076 -27.90730953 8.27302933 C-22.69050808 -2.53844497 -10.27803944 -0.10134268 0 0 Z " fill="#57585A" transform="translate(643.148193359375,487.7060546875)"/>
<path d="M0 0 C4.764375 -0.061875 9.52875 -0.12375 14.4375 -0.1875 C15.9217749 -0.21481201 17.4060498 -0.24212402 18.93530273 -0.27026367 C34.79353725 -0.36963809 34.79353725 -0.36963809 40.70092773 4.36254883 C42.58178747 6.73332993 42.53160819 9.05619727 42.41796875 12 C41.69753221 15.44732253 39.72736571 16.93932369 37 19 C34.1875 20.3125 34.1875 20.3125 32 21 C33.18707084 22.0421557 34.37468641 23.08369093 35.5625 24.125 C36.22378906 24.70507812 36.88507812 25.28515625 37.56640625 25.8828125 C40.69626541 28.60573973 43.84736883 31.30350134 47 34 C47.32685791 33.39639648 47.65371582 32.79279297 47.99047852 32.17089844 C50.61069559 27.33683521 53.24437702 22.51088722 55.8984375 17.6953125 C57.68337988 14.44908874 59.42127926 11.1997189 61.0390625 7.8671875 C61.58304688 6.79726563 62.12703125 5.72734375 62.6875 4.625 C63.12449219 3.70976563 63.56148437 2.79453125 64.01171875 1.8515625 C66.82179515 -0.76528664 69.01622094 -0.57337771 72.75572205 -0.48364258 C75 0 75 0 77.73413086 2.8581543 C78.51227721 4.16012466 79.25422162 5.48419831 79.96484375 6.82421875 C80.36909073 7.52263382 80.77333771 8.22104889 81.18983459 8.94062805 C82.47141235 11.17291888 83.70382509 13.42845172 84.9375 15.6875 C85.79190162 17.1885721 86.64929516 18.68794541 87.50976562 20.18554688 C94.01544022 31.60741397 94.01544022 31.60741397 96 37 C92.82633942 37.63473212 90.1384095 37.89291449 87 37 C85.8046875 34.80859375 85.8046875 34.80859375 84.75 32.0625 C83.54455312 29.14610672 83.54455312 29.14610672 81 27 C74.22208975 25.31915864 66.9332432 25.74690799 60 26 C59.731875 26.70125 59.46375 27.4025 59.1875 28.125 C57.9318551 31.1649824 56.49764877 34.0727774 55 37 C38.98994975 38.06733668 38.98994975 38.06733668 34.421875 35.6171875 C32.71302729 33.83906218 31.35533618 32.05651957 30 30 C24.88545856 24.64190897 21.24749072 21.72788411 13.6875 21.3125 C11.810625 21.209375 9.93375 21.10625 8 21 C8 26.28 8 31.56 8 37 C5.36 37 2.72 37 0 37 C0 24.79 0 12.58 0 0 Z M8 5 C8 8.63 8 12.26 8 16 C11.06273831 16.05410136 14.12451452 16.09372225 17.1875 16.125 C18.05181641 16.14175781 18.91613281 16.15851562 19.80664062 16.17578125 C24.28853887 16.2101253 27.97630843 16.2345161 32 14 C32.66 13.34 33.32 12.68 34 12 C34.07272562 9.44539786 34.07272562 9.44539786 33 7 C28.28951719 4.17371032 22.98824729 4.77760111 17.6875 4.875 C16.75615234 4.88402344 15.82480469 4.89304687 14.86523438 4.90234375 C12.57671177 4.92581578 10.28832221 4.96168391 8 5 Z M70 6 C66.535 13.425 66.535 13.425 63 21 C67.95 21 72.9 21 78 21 C75.69 16.05 73.38 11.1 71 6 C70.67 6 70.34 6 70 6 Z " fill="#231F20" transform="translate(2979,876)"/>
<path d="M0 0 C4.35415117 2.89155985 7.3717752 6.3887631 9.0234375 11.34375 C9.68982882 19.20716752 7.32053603 23.89810221 3.0234375 30.34375 C5.3334375 31.00375 7.6434375 31.66375 10.0234375 32.34375 C9.3634375 33.66375 8.7034375 34.98375 8.0234375 36.34375 C4.45008612 35.91494783 1.23806892 35.41950227 -2.1640625 34.21875 C-5.3174543 33.23769477 -5.90277972 33.56604592 -8.9765625 34.34375 C-19.45525552 35.09575032 -28.66935512 34.87698964 -36.9765625 27.78125 C-40.54914651 23.42716324 -42.01564355 19.97142167 -41.9765625 14.34375 C-41.20490941 8.90543298 -39.51084074 5.32871333 -35.1640625 1.90625 C-25.69562657 -4.72732487 -10.35502423 -4.94779315 0 0 Z M-31.671875 8.17578125 C-33.97599284 12.00448006 -33.48905697 16.01913912 -32.9765625 20.34375 C-31.25848554 24.59372984 -29.06000178 26.3518284 -24.9765625 28.34375 C-21.99354043 29.26304611 -19.34074103 29.45204674 -16.2265625 29.40625 C-15.02773437 29.39271484 -15.02773437 29.39271484 -13.8046875 29.37890625 C-13.20140625 29.36730469 -12.598125 29.35570312 -11.9765625 29.34375 C-13.2965625 28.35375 -14.6165625 27.36375 -15.9765625 26.34375 C-15.6465625 25.68375 -15.3165625 25.02375 -14.9765625 24.34375 C-7.54799107 25.34375 -7.54799107 25.34375 -3.9765625 26.34375 C-0.58462257 22.84239266 0.75330725 20.09531495 1.12109375 15.33203125 C0.89801449 10.79013747 -1.22026094 8.06126687 -4.4140625 5.03125 C-12.58837573 -0.35183432 -25.01577685 0.98290099 -31.671875 8.17578125 Z " fill="#231F20" transform="translate(2648.9765625,878.65625)"/>
<path d="M0 0 C4.764375 -0.061875 9.52875 -0.12375 14.4375 -0.1875 C15.9217749 -0.21481201 17.4060498 -0.24212402 18.93530273 -0.27026367 C35.02691721 -0.37110055 35.02691721 -0.37110055 41.0625 4.75 C42.43456785 8.04296284 42.44081411 10.47348714 42 14 C39.38672985 17.61837406 36.00993615 19.17730175 32 21 C32.50789063 21.42410156 33.01578125 21.84820313 33.5390625 22.28515625 C38.07196413 26.14746007 42.57506926 30.08314868 46 35 C46 35.66 46 36.32 46 37 C42.01080338 37.56915273 38.48419035 37.9587653 34.99316406 35.70361328 C33.09011192 33.90267365 31.3476878 32.03649303 29.625 30.0625 C28.43387967 28.75787891 27.23873387 27.45691854 26.0390625 26.16015625 C25.52553223 25.57886963 25.01200195 24.99758301 24.48291016 24.39868164 C21.48048445 21.56679213 17.73583662 21.73280491 13.8125 21.4375 C11.894375 21.293125 9.97625 21.14875 8 21 C8 26.28 8 31.56 8 37 C5.36 37 2.72 37 0 37 C0 24.79 0 12.58 0 0 Z M8 5 C8 8.63 8 12.26 8 16 C11.06273831 16.05410136 14.12451452 16.09372225 17.1875 16.125 C18.05181641 16.14175781 18.91613281 16.15851562 19.80664062 16.17578125 C24.28853887 16.2101253 27.97630843 16.2345161 32 14 C32.66 13.34 33.32 12.68 34 12 C33.63318342 9.06546739 33.13562754 8.13562754 31 6 C28.11725019 5.03079963 25.47942732 4.88189576 22.453125 4.90234375 C21.60878906 4.90556641 20.76445312 4.90878906 19.89453125 4.91210938 C19.02183594 4.92048828 18.14914063 4.92886719 17.25 4.9375 C16.36183594 4.94201172 15.47367188 4.94652344 14.55859375 4.95117188 C12.37236684 4.96292578 10.18617472 4.98086034 8 5 Z " fill="#231F20" transform="translate(2558,876)"/>
<path d="M0 0 C8 0 8 0 11.203125 2.29492188 C12.23949822 3.33254776 13.25445233 4.39189265 14.25 5.46875 C14.79358154 6.02365112 15.33716309 6.57855225 15.8972168 7.15026855 C17.61793903 8.91554143 19.30866489 10.70659741 21 12.5 C22.16609098 13.70624518 23.33404283 14.91069438 24.50390625 16.11328125 C27.36195319 19.05240754 30.17775843 22.02474533 33 25 C33.33 16.75 33.66 8.5 34 0 C36.64 0 39.28 0 42 0 C42 12.21 42 24.42 42 37 C34 37 34 37 30.796875 34.70507812 C29.76050178 33.66745224 28.74554767 32.60810735 27.75 31.53125 C27.20641846 30.97634888 26.66283691 30.42144775 26.1027832 29.84973145 C24.38206097 28.08445857 22.69133511 26.29340259 21 24.5 C19.83390902 23.29375482 18.66595717 22.08930562 17.49609375 20.88671875 C14.63804681 17.94759246 11.82224157 14.97525467 9 12 C8.67 20.25 8.34 28.5 8 37 C5.36 37 2.72 37 0 37 C0 24.79 0 12.58 0 0 Z " fill="#231F20" transform="translate(1870,876)"/>
<path d="M0 0 C4.62 -0.04125 9.24 -0.0825 14 -0.125 C15.44117188 -0.14320801 16.88234375 -0.16141602 18.3671875 -0.18017578 C34.00313711 -0.24764717 34.00313711 -0.24764717 40 4.25 C42 7 42 7 42.5625 10 C41.85576885 13.76923282 40.74138519 15.33075652 38 18 C36.01801854 19.03525334 34.01952178 20.04003554 32 21 C32.67546875 21.59167969 33.3509375 22.18335938 34.046875 22.79296875 C34.93890625 23.58316406 35.8309375 24.37335937 36.75 25.1875 C37.63171875 25.96480469 38.5134375 26.74210938 39.421875 27.54296875 C41.89091214 29.89603596 44.00919025 32.23240233 46 35 C46 35.66 46 36.32 46 37 C42.12080546 37.50276727 38.52521403 37.95399488 35.10302734 35.81347656 C33.3493436 34.16193435 31.76002488 32.4496678 30.1875 30.625 C29.10215036 29.42560535 28.01243785 28.23014132 26.91796875 27.0390625 C26.45156982 26.50490723 25.9851709 25.97075195 25.50463867 25.42041016 C21.97460264 22.08798283 18.47575666 21.68320152 13.75 21.375 C10.90375 21.189375 10.90375 21.189375 8 21 C8 26.28 8 31.56 8 37 C5.36 37 2.72 37 0 37 C0 24.79 0 12.58 0 0 Z M8 5 C8 8.63 8 12.26 8 16 C11.04221065 16.08132642 14.0822238 16.14065374 17.125 16.1875 C17.9809375 16.21263672 18.836875 16.23777344 19.71875 16.26367188 C24.91029719 16.32357434 28.52262306 15.9492132 33 13 C34.23075102 11.0827517 34.23075102 11.0827517 34 9 C32.0561958 6.23775192 30.2214609 5.62929348 27 5 C25.48604304 4.92181364 23.96906493 4.89210091 22.453125 4.90234375 C21.60878906 4.90556641 20.76445313 4.90878906 19.89453125 4.91210938 C19.02183594 4.92048828 18.14914062 4.92886719 17.25 4.9375 C16.36183594 4.94201172 15.47367188 4.94652344 14.55859375 4.95117188 C12.37236684 4.96292578 10.18617472 4.98086034 8 5 Z " fill="#231F20" transform="translate(1991,876)"/>
<path d="M0 0 C2.05035889 1.90317966 3.40355917 3.65522752 5 6 C5 6.66 5 7.32 5 8 C2.69 8.33 0.38 8.66 -2 9 C-2.20625 8.38125 -2.4125 7.7625 -2.625 7.125 C-4.59266481 4.08406348 -6.54112247 3.92533055 -10 3 C-17.4592189 2.17792831 -24.40818522 1.85908524 -30.57421875 6.5859375 C-33.23213287 9.22200575 -33.98233856 11.23385559 -34.01953125 14.953125 C-33.78894662 18.31841416 -33.34305664 20.49227618 -31.4375 23.3125 C-24.42468689 28.16752446 -17.49717601 28.89953789 -9.20703125 27.54296875 C-6.79304968 27.06970579 -4.39517135 26.56004006 -2 26 C-2 24.02 -2 22.04 -2 20 C-6.95 20 -11.9 20 -17 20 C-17 18.35 -17 16.7 -17 15 C-9.41 15 -1.82 15 6 15 C6 19.62 6 24.24 6 29 C-6.30173511 34.017813 -18.97452903 36.66098951 -31.94921875 31.97265625 C-36.63120914 29.75205509 -39.30917108 27.24349205 -41.875 22.625 C-43.58967257 17.09994395 -43.7118289 13.07931953 -41.3125 7.8125 C-38.19266888 2.20113709 -33.98595625 -0.60723691 -27.92578125 -2.4609375 C-18.97154495 -4.11071669 -8.02392365 -4.62918672 0 0 Z " fill="#231F20" transform="translate(1807,879)"/>
<path d="M0 0 C3.939375 -0.04125 7.87875 -0.0825 11.9375 -0.125 C13.16073975 -0.14320801 14.38397949 -0.16141602 15.64428711 -0.18017578 C24.64635002 -0.22547469 32.82234929 0.01862441 40 6 C43.76679755 11.19558282 44.43154379 15.63472904 44 22 C41.91508046 28.71807406 38.81143541 31.93976464 32.6875 35.25 C25.29094235 37.31415562 17.5563146 37.1308763 9.9375 37.0625 C6.658125 37.041875 3.37875 37.02125 0 37 C0 24.79 0 12.58 0 0 Z M8 5 C8 13.58 8 22.16 8 31 C11.01125 31.0825 14.0225 31.165 17.125 31.25 C18.06230957 31.28641602 18.99961914 31.32283203 19.96533203 31.36035156 C25.48419042 31.43323106 28.65619884 30.73390708 33 27 C36.04472408 22.77667305 36.54727259 19.21723234 35.765625 14.1875 C34.36171368 10.17632481 31.63226363 8.03582518 28 6 C21.53782399 4.19059072 14.65378334 5 8 5 Z " fill="#231F20" transform="translate(2151,876)"/>
<path d="M0 0 C8 0 8 0 9.99047852 1.06640625 C10.67775024 1.80697266 10.67775024 1.80697266 11.37890625 2.5625 C12.1668457 3.38137695 12.1668457 3.38137695 12.97070312 4.21679688 C13.75864258 5.09948242 13.75864258 5.09948242 14.5625 6 C15.12259766 6.59361328 15.68269531 7.18722656 16.25976562 7.79882812 C17.86463065 9.51180252 19.43749575 11.24840288 21 13 C21.73089844 13.8146875 22.46179687 14.629375 23.21484375 15.46875 C24.30286186 16.70675748 25.38011155 17.9544812 26.4375 19.21875 C28.51181087 21.58346439 30.77574285 23.77574285 33 26 C33.33 17.42 33.66 8.84 34 0 C36.31 0 38.62 0 41 0 C41 12.21 41 24.42 41 37 C33 37 33 37 30.91772461 35.84179688 C30.41764893 35.30619141 29.91757324 34.77058594 29.40234375 34.21875 C28.83177246 33.62755371 28.26120117 33.03635742 27.67333984 32.42724609 C26.81409912 31.47325928 26.81409912 31.47325928 25.9375 30.5 C25.33115723 29.8601416 24.72481445 29.2202832 24.10009766 28.56103516 C22.37514999 26.72842328 20.68192092 24.8720786 19 23 C18.23558594 22.15179687 17.47117187 21.30359375 16.68359375 20.4296875 C15.58490539 19.18150159 14.49705569 17.92350977 13.4296875 16.6484375 C11.71852754 14.67546071 9.84671409 12.84671409 8 11 C7.67 19.58 7.34 28.16 7 37 C4.69 37 2.38 37 0 37 C0 24.79 0 12.58 0 0 Z " fill="#231F20" transform="translate(2320,876)"/>
<path d="M0 0 C8 0 8 0 10.55712891 1.63305664 C11.27304199 2.38449951 11.98895508 3.13594238 12.7265625 3.91015625 C13.5309375 4.73580078 14.3353125 5.56144531 15.1640625 6.41210938 C15.97617188 7.28673828 16.78828125 8.16136719 17.625 9.0625 C18.44484375 9.91005859 19.2646875 10.75761719 20.109375 11.63085938 C24.58868029 16.29380177 28.7842511 21.08162629 33 26 C33.33 17.42 33.66 8.84 34 0 C36.31 0 38.62 0 41 0 C41 12.21 41 24.42 41 37 C33 37 33 37 30.71484375 35.53125 C30.12832031 34.8609375 29.54179688 34.190625 28.9375 33.5 C27.94169922 32.39785156 27.94169922 32.39785156 26.92578125 31.2734375 C26.29027344 30.52320313 25.65476562 29.77296875 25 29 C23.8753305 27.70804556 22.75033836 26.41637189 21.625 25.125 C21.06941406 24.47789062 20.51382812 23.83078125 19.94140625 23.1640625 C16.14401059 18.93115064 12.04741744 14.99197337 8 11 C7.67 19.58 7.34 28.16 7 37 C4.69 37 2.38 37 0 37 C0 24.79 0 12.58 0 0 Z " fill="#231F20" transform="translate(1714,876)"/>
<path d="M0 0 C12.87 0 25.74 0 39 0 C39 1.65 39 3.3 39 5 C28.77 5 18.54 5 8 5 C8 8.3 8 11.6 8 15 C17.57 15 27.14 15 37 15 C37 16.65 37 18.3 37 20 C27.43 20 17.86 20 8 20 C8 23.63 8 27.26 8 31 C18.56 31 29.12 31 40 31 C40 32.98 40 34.96 40 37 C26.8 37 13.6 37 0 37 C0 24.79 0 12.58 0 0 Z " fill="#231F20" transform="translate(1822,876)"/>
<path d="M0 0 C4.35415117 2.89155985 7.3717752 6.3887631 9.0234375 11.34375 C9.58727879 17.03637838 9.33063656 21.49319138 6.0234375 26.34375 C-0.45278084 32.97416402 -7.28149188 34.50506339 -16.4140625 34.78125 C-23.7978694 34.6036835 -30.28865471 33.73692746 -35.8828125 28.58984375 C-40.4335169 23.44883572 -41.33475703 20.03520821 -41.25390625 13.171875 C-40.82870192 8.83598863 -39.6550056 6.79753189 -36.9765625 3.34375 C-27.21354712 -4.5091102 -11.28326445 -5.3913209 0 0 Z M-31.9765625 8.53125 C-33.42132602 12.59464739 -33.86993499 16.09478328 -32.9765625 20.34375 C-30.81796899 24.26779113 -28.17677726 26.71636501 -24.2265625 28.78125 C-17.17704368 30.00135903 -11.02492078 30.27068747 -4.671875 26.60546875 C-1.87627483 24.52487231 -0.45355301 22.48235483 1.0234375 19.34375 C1.49361151 15.51519018 1.3953982 13.18555579 -0.1640625 9.65625 C-2.95641615 6.0935919 -5.66762831 3.7800614 -9.9765625 2.34375 C-18.56900583 1.56724771 -25.90478742 1.890246 -31.9765625 8.53125 Z " fill="#231F20" transform="translate(2410.9765625,878.65625)"/>
<path d="M0 0 C1.13622803 0.00628418 1.13622803 0.00628418 2.29541016 0.01269531 C8.57975539 0.14014482 13.94271268 0.56771268 18.625 5.25 C19.6707468 7.27997907 20.28682423 9.06871569 20.6875 11.3125 C18.0475 11.6425 15.4075 11.9725 12.6875 12.3125 C12.44 11.69375 12.1925 11.075 11.9375 10.4375 C10.40741571 7.83635671 9.48327692 7.38706732 6.6875 6.3125 C3.77507044 5.996552 3.77507044 5.996552 0.6875 6.0625 C-0.34375 6.05734375 -1.375 6.0521875 -2.4375 6.046875 C-5.25847278 6.30750835 -6.91395718 6.85953656 -9.3125 8.3125 C-8.9825 9.6325 -8.6525 10.9525 -8.3125 12.3125 C-7.64718262 12.44301758 -6.98186523 12.57353516 -6.29638672 12.70800781 C-3.25715687 13.31236102 -0.22249028 13.93721887 2.8125 14.5625 C3.85921875 14.76746094 4.9059375 14.97242188 5.984375 15.18359375 C11.73202985 16.38405331 16.15656195 17.49857908 20.6875 21.3125 C22.11412219 24.16574437 21.99783868 26.14704549 21.6875 29.3125 C19.45310253 33.31579547 16.72735166 35.37317253 12.35546875 36.80859375 C3.74403125 38.43505852 -7.56773376 38.90135929 -15.3125 34.3125 C-17.557916 32.41294192 -18.70086269 30.85992672 -20.3125 28.3125 C-20.3125 26.9925 -20.3125 25.6725 -20.3125 24.3125 C-14.95695326 23.87352076 -14.95695326 23.87352076 -12.3125 24.3125 C-10.75 26.6875 -10.75 26.6875 -9.3125 29.3125 C-4.16334231 31.47514623 1.16490005 32.00282499 6.6875 31.3125 C10.14096148 29.96503476 10.14096148 29.96503476 12.6875 28.3125 C12.1925 26.3325 12.1925 26.3325 11.6875 24.3125 C4.71192948 22.34144701 -2.26696504 20.62165218 -9.3671875 19.15625 C-12.44230916 18.27531329 -14.70072073 17.14729834 -17.3125 15.3125 C-18.75680855 12.42388291 -18.68938506 10.51602299 -18.3125 7.3125 C-13.17996389 0.86016889 -7.92556868 -0.05892616 0 0 Z " fill="#231F20" transform="translate(2241.3125,875.6875)"/>
<path d="M0 0 C12.54 0 25.08 0 38 0 C38 1.65 38 3.3 38 5 C27.77 5 17.54 5 7 5 C7 8.3 7 11.6 7 15 C16.57 15 26.14 15 36 15 C36 16.65 36 18.3 36 20 C26.43 20 16.86 20 7 20 C7 23.63 7 27.26 7 31 C17.56 31 28.12 31 39 31 C39 32.98 39 34.96 39 37 C26.13 37 13.26 37 0 37 C0 24.79 0 12.58 0 0 Z " fill="#231F20" transform="translate(2783,876)"/>
<path d="M0 0 C12.54 0 25.08 0 38 0 C38 1.65 38 3.3 38 5 C27.77 5 17.54 5 7 5 C7 8.3 7 11.6 7 15 C16.57 15 26.14 15 36 15 C36 16.65 36 18.3 36 20 C26.43 20 16.86 20 7 20 C7 23.63 7 27.26 7 31 C17.56 31 28.12 31 39 31 C39 32.98 39 34.96 39 37 C26.13 37 13.26 37 0 37 C0 24.79 0 12.58 0 0 Z " fill="#231F20" transform="translate(2272,876)"/>
<path d="M0 0 C12.54 0 25.08 0 38 0 C38 1.65 38 3.3 38 5 C27.77 5 17.54 5 7 5 C7 8.3 7 11.6 7 15 C16.57 15 26.14 15 36 15 C36 16.65 36 18.3 36 20 C26.43 20 16.86 20 7 20 C7 23.63 7 27.26 7 31 C17.56 31 28.12 31 39 31 C39 32.98 39 34.96 39 37 C26.13 37 13.26 37 0 37 C0 24.79 0 12.58 0 0 Z " fill="#231F20" transform="translate(1943,876)"/>
<path d="M0 0 C2.65675632 0.28999045 3.71292279 0.66716255 5.49487305 2.68237305 C5.93355713 3.38918213 6.37224121 4.09599121 6.82421875 4.82421875 C7.33573486 5.63737549 7.84725098 6.45053223 8.37426758 7.28833008 C8.93138428 8.20380615 9.48850098 9.11928223 10.0625 10.0625 C10.68471436 11.06369873 11.30692871 12.06489746 11.94799805 13.09643555 C13.9663237 16.3639996 15.95473103 19.64825534 17.9375 22.9375 C18.63278654 24.0755367 19.32809889 25.21355762 20.0234375 26.3515625 C20.99796875 27.96804688 20.99796875 27.96804688 21.9921875 29.6171875 C22.58241699 30.59155762 23.17264648 31.56592773 23.78076172 32.56982422 C25.0625 35.0625 25.0625 35.0625 25.0625 38.0625 C19.88324852 38.95547439 19.88324852 38.95547439 17.0625 38.0625 C15.93359375 35.8359375 15.93359375 35.8359375 14.875 33.0625 C13.61150115 30.18351976 13.61150115 30.18351976 11.0625 28.0625 C4.46751504 26.17115201 -3.34251504 26.17115201 -9.9375 28.0625 C-12.59890416 30.54819149 -13.52221097 32.46570955 -14.80859375 35.8359375 C-15.18113281 36.57070313 -15.55367187 37.30546875 -15.9375 38.0625 C-18.95877333 39.01895524 -20.75135591 38.61183519 -23.9375 38.0625 C-22.68425119 33.99232948 -21.18186738 30.42399004 -19.07421875 26.7265625 C-18.51669922 25.74429688 -17.95917969 24.76203125 -17.38476562 23.75 C-16.80404297 22.739375 -16.22332031 21.72875 -15.625 20.6875 C-15.05587891 19.68460938 -14.48675781 18.68171875 -13.90039062 17.6484375 C-12.26314694 14.77621206 -10.60306114 11.91837121 -8.9375 9.0625 C-8.47738525 8.24692627 -8.01727051 7.43135254 -7.54321289 6.59106445 C-7.12160889 5.86878662 -6.70000488 5.14650879 -6.265625 4.40234375 C-5.90758789 3.77706787 -5.54955078 3.15179199 -5.18066406 2.50756836 C-3.54778316 0.60948862 -2.46854342 0.30436084 0 0 Z M0.0625 8.0625 C-1.16879588 9.99359714 -2.34745951 11.95839007 -3.5 13.9375 C-4.14066406 15.02804687 -4.78132813 16.11859375 -5.44140625 17.2421875 C-7.09370613 19.82487305 -7.09370613 19.82487305 -6.9375 22.0625 C-1.9875 22.0625 2.9625 22.0625 8.0625 22.0625 C5.7525 17.4425 3.4425 12.8225 1.0625 8.0625 C0.7325 8.0625 0.4025 8.0625 0.0625 8.0625 Z " fill="#231F20" transform="translate(2080.9375,874.9375)"/>
<path d="M0 0 C3.72099412 0.20563612 4.01008673 0.56509631 6.6953125 3.546875 C7.46866229 4.86575174 8.21046834 6.20345355 8.92578125 7.5546875 C9.76232115 9.01472403 10.59959015 10.474343 11.4375 11.93359375 C11.86724121 12.70461426 12.29698242 13.47563477 12.73974609 14.27001953 C14.16474076 16.76996573 15.66430213 19.20820286 17.1953125 21.64453125 C17.70280029 22.4535791 18.21028809 23.26262695 18.7331543 24.09619141 C19.72405693 25.6735991 20.71637103 27.25012117 21.71020508 28.82568359 C22.15517334 29.5470752 22.6001416 30.2684668 23.05859375 31.01171875 C23.65438232 31.96655151 23.65438232 31.96655151 24.26220703 32.94067383 C25.11328125 34.6796875 25.11328125 34.6796875 25.11328125 37.6796875 C20.028811 38.46865702 20.028811 38.46865702 17.11328125 37.6796875 C14.27595722 34.74145445 11.11328125 30.91045587 11.11328125 26.6796875 C0.53589083 26.21408753 0.53589083 26.21408753 -9.88671875 27.6796875 C-12.5574083 30.17999813 -13.45605402 32.11139485 -14.7578125 35.48828125 C-15.13035156 36.21144531 -15.50289062 36.93460938 -15.88671875 37.6796875 C-18.90869081 38.63073643 -20.70117129 38.22891982 -23.88671875 37.6796875 C-22.53918828 33.23571289 -20.7749767 29.38115816 -18.515625 25.328125 C-18.03113136 24.45614975 -18.03113136 24.45614975 -17.53684998 23.56655884 C-16.85764729 22.3467257 -16.17597426 21.12826505 -15.49194336 19.91113281 C-14.45002296 18.0561193 -13.41682961 16.19644933 -12.38476562 14.3359375 C-4.85990991 0.84987369 -4.85990991 0.84987369 0 0 Z M-0.88671875 7.6796875 C-1.89156079 9.63554075 -2.8904568 11.59444987 -3.88671875 13.5546875 C-4.44359375 14.64523437 -5.00046875 15.73578125 -5.57421875 16.859375 C-7.02735969 19.46343832 -7.02735969 19.46343832 -6.88671875 21.6796875 C-1.93671875 21.6796875 3.01328125 21.6796875 8.11328125 21.6796875 C6.99953125 19.5553125 5.88578125 17.4309375 4.73828125 15.2421875 C4.39104004 14.5726001 4.04379883 13.9030127 3.68603516 13.21313477 C2.0289422 9.85104453 2.0289422 9.85104453 -0.88671875 7.6796875 Z " fill="#231F20" transform="translate(2527.88671875,875.3203125)"/>
<path d="M0 0 C2.64 0 5.28 0 8 0 C8.01401855 1.15000488 8.01401855 1.15000488 8.02832031 2.32324219 C8.08202773 5.79948103 8.16567576 9.27437474 8.25 12.75 C8.26417969 13.9565625 8.27835938 15.163125 8.29296875 16.40625 C8.32519531 17.56640625 8.35742188 18.7265625 8.390625 19.921875 C8.41157227 20.99018555 8.43251953 22.05849609 8.45410156 23.15917969 C9.12603773 26.65589222 10.22732684 27.82947939 13 30 C18.12833706 31.70944569 23.1765667 31.36468666 28.4375 30.3125 C31.15219922 29.23779149 31.15219922 29.23779149 32.13427734 26.77661133 C33.05432138 23.82577634 33.31507382 21.34686607 33.4140625 18.26171875 C33.45273438 17.19501953 33.49140625 16.12832031 33.53125 15.02929688 C33.5621875 13.92650391 33.593125 12.82371094 33.625 11.6875 C33.66367188 10.56537109 33.70234375 9.44324219 33.7421875 8.28710938 C33.83622011 5.52490148 33.92187341 2.762696 34 0 C36.64 0 39.28 0 42 0 C42.08816905 3.64567713 42.14077948 7.29107474 42.1875 10.9375 C42.21263672 11.95908203 42.23777344 12.98066406 42.26367188 14.03320312 C42.32451477 20.38114511 41.99692346 26.27568868 39 32 C31.46649841 38.41149072 22.35749939 37.51986108 13 37 C8.01555386 36.01470251 4.17661585 34.06606828 1 30 C-0.09911549 26.70265354 -0.1139456 24.27041255 -0.09765625 20.80078125 C-0.09443359 19.59228516 -0.09121094 18.38378906 -0.08789062 17.13867188 C-0.07951172 15.87603516 -0.07113281 14.61339844 -0.0625 13.3125 C-0.05573242 11.40114258 -0.05573242 11.40114258 -0.04882812 9.45117188 C-0.03702873 6.30073436 -0.02056597 3.15039051 0 0 Z " fill="#231F20" transform="translate(2927,876)"/>
<path d="M0 0 C2.64 0 5.28 0 8 0 C8.01981934 0.73637695 8.03963867 1.47275391 8.06005859 2.23144531 C8.15537828 5.57132056 8.26502996 8.91057639 8.375 12.25 C8.4059375 13.40886719 8.436875 14.56773437 8.46875 15.76171875 C8.50742188 16.87675781 8.54609375 17.99179687 8.5859375 19.140625 C8.6173584 20.16704102 8.6487793 21.19345703 8.68115234 22.25097656 C9.00047692 25.00411184 9.50734197 26.68337359 11 29 C15.30593469 31.60965739 20.1194291 31.54968887 25 31 C27.67646768 30.27367234 29.54346219 29.38180252 32 28 C33.03714522 24.88856433 33.20031861 22.50531904 33.31640625 19.23828125 C33.37924805 17.56088867 33.37924805 17.56088867 33.44335938 15.84960938 C33.48267578 14.68236328 33.52199219 13.51511719 33.5625 12.3125 C33.62727539 10.54422852 33.62727539 10.54422852 33.69335938 8.74023438 C33.79951176 5.82694117 33.90156242 2.91356243 34 0 C36.64 0 39.28 0 42 0 C42.08742801 4.20820145 42.14053641 8.41616776 42.1875 12.625 C42.21263672 13.81480469 42.23777344 15.00460937 42.26367188 16.23046875 C42.35697425 27.36455191 42.35697425 27.36455191 39 32 C31.10847386 38.21247802 22.58605115 37.52304843 13 37 C8.60750917 36.18917684 5.77031828 34.77031828 2.5625 31.5625 C0.02893898 27.40745993 -0.12226389 23.96372188 -0.09765625 19.140625 C-0.09443359 18.02558594 -0.09121094 16.91054688 -0.08789062 15.76171875 C-0.07951172 14.60285156 -0.07113281 13.44398438 -0.0625 12.25 C-0.05798828 11.07566406 -0.05347656 9.90132812 -0.04882812 8.69140625 C-0.03705094 5.79421928 -0.02060326 2.89713546 0 0 Z " fill="#231F20" transform="translate(2666,876)"/>
<path d="M0 0 C5.1791318 3.65585774 5.1791318 3.65585774 7.1875 6.25 C7.1875 7.24 7.1875 8.23 7.1875 9.25 C1.91882372 10.39154653 1.91882372 10.39154653 -0.8125 10.25 C-3.125 7.875 -3.125 7.875 -4.8125 5.25 C-10.75328647 3.26973784 -17.46757926 3.46835975 -23.375 5.4375 C-26.26818741 7.58884448 -27.49255447 8.87680586 -28.8125 12.25 C-29.36961089 16.50570822 -29.24275509 20.08578035 -27.75 24.125 C-24.46732831 27.72534959 -21.05880697 28.99053733 -16.34375 29.53515625 C-11.12987693 29.71575728 -7.19434941 29.3493569 -2.8125 26.25 C-0.93118431 23.70211147 -0.93118431 23.70211147 0.1875 21.25 C2.8275 21.58 5.4675 21.91 8.1875 22.25 C8.10613476 25.01641818 7.6203274 26.76097677 5.7734375 28.84765625 C-1.34070118 35.22530921 -8.59675803 35.78991447 -17.8125 35.56640625 C-24.3330059 35.19885887 -29.66100265 33.40149735 -34.3125 28.75 C-38.07672451 22.47629249 -38.58054111 17.58577728 -37.8125 10.25 C-35.3942189 4.70810582 -31.118969 1.85141351 -25.8125 -0.75 C-18.35110011 -2.9119126 -7.14767327 -3.45855158 0 0 Z " fill="#231F20" transform="translate(2866.8125,877.75)"/>
<path d="M0 0 C4.47878353 -0.66080413 8.37563304 -1.11604234 12.234375 1.53515625 C14.29096194 3.6037001 16.15895517 5.73803253 18 8 C19.1664902 9.33348772 20.33314033 10.66683557 21.5 12 C22.7375 13.485 22.7375 13.485 24 15 C27.2382358 12.31295327 30.3406147 9.73597451 33.15234375 6.59765625 C38.8529388 0.25586949 38.8529388 0.25586949 42.57421875 -0.57421875 C45.0625 -0.5625 45.0625 -0.5625 49 0 C46.0193822 3.68526535 43.00112576 7.10587435 39.38671875 10.18359375 C30.9216012 17.412348 30.9216012 17.412348 27.67114258 27.69165039 C27.60482903 30.8294391 27.71573899 33.8731289 28 37 C25.36 37 22.72 37 20 37 C20.12503906 36.04222656 20.25007813 35.08445312 20.37890625 34.09765625 C20.7609483 28.40385759 20.73390408 23.43239386 17.31640625 18.63818359 C13.14654238 13.9762059 8.5394863 9.80209498 3.77172852 5.76074219 C1.9479303 3.94825318 1.00162979 2.35123151 0 0 Z " fill="#231F20" transform="translate(2441,876)"/>
<path d="M0 0 C13.86 0 27.72 0 42 0 C42 1.65 42 3.3 42 5 C36.39 5 30.78 5 25 5 C25 15.56 25 26.12 25 37 C22.36 37 19.72 37 17 37 C17 26.44 17 15.88 17 5 C11.39 5 5.78 5 0 5 C0 3.35 0 1.7 0 0 Z " fill="#231F20" transform="translate(2879,876)"/>
<path d="M0 0 C13.86 0 27.72 0 42 0 C42 1.65 42 3.3 42 5 C36.39 5 30.78 5 25 5 C25 15.56 25 26.12 25 37 C22.36 37 19.72 37 17 37 C17 26.44 17 15.88 17 5 C11.39 5 5.78 5 0 5 C0 3.35 0 1.7 0 0 Z " fill="#231F20" transform="translate(2734,876)"/>
<path d="M0 0 C2.64 0 5.28 0 8 0 C8 12.21 8 24.42 8 37 C5.36 37 2.72 37 0 37 C0 24.79 0 12.58 0 0 Z " fill="#231F20" transform="translate(2719,876)"/>
<path d="M0 0 C2.64 0 5.28 0 8 0 C8 12.21 8 24.42 8 37 C5.36 37 2.72 37 0 37 C0 24.79 0 12.58 0 0 Z " fill="#231F20" transform="translate(2204,876)"/>
<path d="M0 0 C2.64 0 5.28 0 8 0 C8 12.21 8 24.42 8 37 C5.36 37 2.72 37 0 37 C0 24.79 0 12.58 0 0 Z " fill="#231F20" transform="translate(2044,876)"/>
<path d="M0 0 C2.64 0 5.28 0 8 0 C8 12.21 8 24.42 8 37 C5.36 37 2.72 37 0 37 C0 24.79 0 12.58 0 0 Z " fill="#231F20" transform="translate(1695,876)"/>
<path d="M0 0 C2.31 0 4.62 0 7 0 C7 12.21 7 24.42 7 37 C4.69 37 2.38 37 0 37 C0 24.79 0 12.58 0 0 Z " fill="#231F20" transform="translate(1924,876)"/>
<path d="M0 0 C4.40530416 0.07265119 8.47806396 0.25613541 12.79296875 1.23046875 C13.12296875 0.90046875 13.45296875 0.57046875 13.79296875 0.23046875 C15.79255239 0.18966092 17.79342129 0.18792519 19.79296875 0.23046875 C18.04296875 5.10546875 18.04296875 5.10546875 15.79296875 6.23046875 C12.05523342 6.37704661 8.62403421 6.20594599 4.91796875 5.66796875 C3.88671875 5.52359375 2.85546875 5.37921875 1.79296875 5.23046875 C1.46296875 5.56046875 1.13296875 5.89046875 0.79296875 6.23046875 C-1.20661489 6.27127658 -3.20748379 6.27301231 -5.20703125 6.23046875 C-4.50700981 2.73036155 -3.95976245 0.41349732 0 0 Z " fill="#231F20" transform="translate(2334.20703125,868.76953125)"/>
<path d="M0 0 C2.64 0 5.28 0 8 0 C8.36190476 7.23809524 8.36190476 7.23809524 6.8125 10.5 C5 12 5 12 2.3125 12.25 C1.549375 12.1675 0.78625 12.085 0 12 C0 9 0 9 1.5 7.3125 C1.995 6.879375 2.49 6.44625 3 6 C2.01 6 1.02 6 0 6 C0 4.02 0 2.04 0 0 Z " fill="#231F20" transform="translate(2112,907)"/>
<path d="M0 0 C1.23556641 0.01740234 1.23556641 0.01740234 2.49609375 0.03515625 C3.32238281 0.04417969 4.14867188 0.05320312 5 0.0625 C5.63808594 0.07410156 6.27617187 0.08570313 6.93359375 0.09765625 C5.18326745 3.86758982 3.52470956 5.86318419 -0.06640625 8.09765625 C-3.87890625 8.34765625 -3.87890625 8.34765625 -7.06640625 8.09765625 C-2.57074947 0.121491 -2.57074947 0.121491 0 0 Z " fill="#231F20" transform="translate(2049.06640625,866.90234375)"/>
</svg>
