<?xml version="1.0" encoding="UTF-8"?>
<svg id="Layer_1" xmlns="http://www.w3.org/2000/svg" version="1.1" viewBox="0 0 1920 1080">
  <!-- Generator: Adobe Illustrator 29.3.1, SVG Export Plug-In . SVG Version: 2.1.0 Build 151)  -->
  <g>
    <g>
      <path d="M-1235,689.6v63.2h-7.1v-63.2h7.1Z"/>
      <path d="M-1211.8,691v7.9h-8.2v-7.9h8.2ZM-1212.3,706.9v45.9h-7.1v-45.9h7.1Z"/>
      <path d="M-1193.6,706.9l18.1,37.9h.2l18-37.9h7.7l-22.6,45.9h-6.6l-22.6-45.9h7.8Z"/>
      <path d="M-1119.4,705.6c13.6,0,23.9,10,23.9,24.2v2.6h-41.1c0,9.1,7.8,15.7,17.3,15.7s12.9-3.3,16.8-9.8l5.6,3.7c-4.9,8-12.6,12.1-22.4,12.1-14.7,0-24.5-9.4-24.5-24s10.1-24.5,24.4-24.5ZM-1119.4,711.7c-9.5,0-16.6,6.4-17.2,15h33.8c-.5-8.3-7.9-15-16.6-15Z"/>
      <path d="M-1042.4,742.3c0,3.1,1.3,4.2,5,4.2h7.2v6.2h-7.3c-8.6,0-12-3-12-10.6v-29.4h-10v-6h10v-10.3h7.1v10.3h14.7v6h-14.7v29.4Z"/>
      <path d="M-1008,689.6v23h.2c3.6-4.5,9.4-7,16.3-7,12.9,0,21.7,8,21.7,19.6v27.6h-7.1v-26.2c0-9.1-5.7-14.7-15.1-14.7s-16,6.2-16,15.1v25.9h-7.1v-63.2h7.1Z"/>
      <path d="M-931.8,705.6c13.6,0,23.9,10,23.9,24.2v2.6h-41.1c0,9.1,7.8,15.7,17.3,15.7s12.9-3.3,16.8-9.8l5.6,3.7c-4.9,8-12.6,12.1-22.4,12.1-14.7,0-24.5-9.4-24.5-24s10.1-24.5,24.4-24.5ZM-931.8,711.7c-9.5,0-16.6,6.4-17.2,15h33.8c-.5-8.3-7.9-15-16.6-15Z"/>
      <path d="M-846.1,705.6c13.6,0,23.9,10,23.9,24.2v2.6h-41.1c0,9.1,7.8,15.7,17.3,15.7s12.9-3.3,16.8-9.8l5.6,3.7c-4.9,8-12.6,12.1-22.4,12.1-14.7,0-24.5-9.4-24.5-24s10.1-24.5,24.4-24.5ZM-846.1,711.7c-9.5,0-16.6,6.4-17.2,15h33.8c-.5-8.3-7.9-15-16.6-15Z"/>
      <path d="M-817,706.9h8.7l14.5,17.8h.2l14.6-17.8h8.7l-18.8,22.5,19.5,23.4h-8.7l-15.2-18.7h-.2l-15.2,18.7h-8.7l19.4-23.4-18.7-22.5Z"/>
      <path d="M-745.3,742.3c0,3.1,1.3,4.2,5,4.2h7.2v6.2h-7.3c-8.6,0-12-3-12-10.6v-29.4h-10v-6h10v-10.3h7.1v10.3h14.7v6h-14.7v29.4Z"/>
      <path d="M-711.3,706.9v4.5h.2c2.7-3.2,7.1-5.3,11.7-5.3s4.6.3,7.1,1l-1.6,6.8c-2.7-.7-4-1-6.1-1-6.6,0-10.9,4.6-10.9,12.6v27.3h-7.1v-45.9h6.8Z"/>
      <path d="M-665.5,726.1c9.8-1.6,13.2-3.5,13.2-7s-4.5-7.3-11.5-7.3-13.4,4.1-14.8,11l-6.8-1.5c.9-4.8,3.2-8.6,7.1-11.4,3.9-2.9,8.7-4.3,14.5-4.3,11.7,0,19.1,5.9,19.1,15v32.2h-6.8v-5.8h-.2c-3.1,4.2-9.8,7.1-17.1,7.1-10.7,0-17-5.2-17-13.6s5.6-12,20.3-14.4ZM-651.8,726.9h-.2c-1.3,2.3-4.6,3.6-12.2,4.9-10.3,1.7-14.4,4.2-14.4,8.7s3.6,7.3,11.3,7.3,15.5-5.2,15.5-11v-9.9Z"/>
      <path d="M-606.2,705.6c14.3,0,25,10.5,25,24.2s-10.7,24.2-25,24.2c-14.2.3-25.2-10.5-24.9-24.2-.3-13.8,10.7-24.4,24.9-24.2ZM-606.2,711.8c-10.3,0-17.8,7.3-17.8,18s7.5,18,17.8,18,17.9-7.3,17.9-18-7.5-18-17.9-18Z"/>
      <path d="M-560.5,706.9v4.5h.2c2.7-3.2,7.1-5.3,11.7-5.3s4.6.3,7.1,1l-1.6,6.8c-2.7-.7-4-1-6.1-1-6.6,0-10.9,4.6-10.9,12.6v27.3h-7.1v-45.9h6.8Z"/>
      <path d="M-510.8,705.6c7.2,0,13.6,2.6,17.4,7.1h.2v-23.1h7.1v63.2h-6.8v-5.7h-.2c-3.7,4.4-10,7-17.2,7-14.3,0-24.6-10-24.6-24.2s10.4-24.2,24.2-24.2ZM-493.2,726.4c0-8.1-7.4-14.6-17.1-14.6s-17.5,7.1-17.5,18,6.9,18,17.9,18,16.7-6.5,16.7-14.5v-6.9Z"/>
      <path d="M-462.8,691v7.9h-8.2v-7.9h8.2ZM-463.2,706.9v45.9h-7.1v-45.9h7.1Z"/>
      <path d="M-440.6,706.9v5.7h.2c3.5-4.4,9.8-7,16.5-7,12.9,0,21.7,8,21.7,19.6v27.6h-7.1v-26.2c0-9.1-5.6-14.7-14.6-14.7s-16.5,6.2-16.5,15.1v25.9h-7.1v-45.9h6.9Z"/>
      <path d="M-368.4,726.1c9.8-1.6,13.2-3.5,13.2-7s-4.5-7.3-11.5-7.3-13.4,4.1-14.8,11l-6.8-1.5c.9-4.8,3.2-8.6,7.1-11.4,3.9-2.9,8.7-4.3,14.5-4.3,11.7,0,19.1,5.9,19.1,15v32.2h-6.8v-5.8h-.2c-3.1,4.2-9.8,7.1-17.1,7.1-10.7,0-17-5.2-17-13.6s5.6-12,20.3-14.4ZM-354.7,726.9h-.2c-1.3,2.3-4.6,3.6-12.2,4.9-10.3,1.7-14.4,4.2-14.4,8.7s3.6,7.3,11.3,7.3,15.5-5.2,15.5-11v-9.9Z"/>
      <path d="M-325.6,706.9v4.5h.2c2.7-3.2,7.1-5.3,11.7-5.3s4.6.3,7.1,1l-1.6,6.8c-2.7-.7-4-1-6.1-1-6.6,0-10.9,4.6-10.9,12.6v27.3h-7.1v-45.9h6.8Z"/>
      <path d="M-299.6,706.9h8.1l16.8,34.5h.2l16.7-34.5h8.1l-32.6,65.4h-8.1l11.8-23.5-21-41.9Z"/>
    </g>
    <path d="M-1302.9,651.5c-46.6,0-91.4-19.1-123.7-52.5-32.3,33.4-77.1,52.5-123.7,52.5-94.8,0-171.9-77.1-171.9-171.9s77.1-171.9,171.9-171.9,91.4,19.1,123.7,52.5c32.3-33.4,77.1-52.5,123.7-52.5,94.8,0,171.9,77.1,171.9,171.9s-77.1,171.9-171.9,171.9ZM-1426.6,585.1l3.5,3.8c30.7,33.8,74.6,53.2,120.2,53.2,89.6,0,162.5-72.9,162.5-162.5s-72.9-162.5-162.5-162.5-89.5,19.4-120.2,53.2l-3.5,3.8-3.5-3.8c-30.7-33.8-74.6-53.2-120.2-53.2-89.6,0-162.5,72.9-162.5,162.5s72.9,162.5,162.5,162.5,89.5-19.4,120.2-53.2l3.5-3.8Z"/>
    <path d="M-409.7,651.5c-46.6,0-91.4-19.1-123.7-52.5-32.3,33.4-77.1,52.5-123.7,52.5s-91.4-19.1-123.7-52.5c-32.3,33.4-77.1,52.5-123.7,52.5-94.8,0-171.9-77.1-171.9-171.9s77.1-171.9,171.9-171.9,91.4,19.1,123.7,52.5c32.3-33.4,77.1-52.5,123.7-52.5s91.4,19.1,123.7,52.5c32.3-33.4,77.1-52.5,123.7-52.5,94.8,0,171.9,77.1,171.9,171.9s-77.1,171.9-171.9,171.9ZM-533.4,585.1l3.5,3.8c30.7,33.8,74.6,53.2,120.2,53.2,89.6,0,162.5-72.9,162.5-162.5s-72.9-162.5-162.5-162.5-89.5,19.4-120.2,53.2l-3.5,3.8-3.5-3.8c-30.7-33.8-74.6-53.2-120.2-53.2s-89.5,19.4-120.2,53.2l-3.5,3.8-3.5-3.8c-30.7-33.8-74.6-53.2-120.2-53.2-89.6,0-162.5,72.9-162.5,162.5s72.9,162.5,162.5,162.5,89.5-19.4,120.2-53.2l3.5-3.8,3.5,3.8c30.7,33.8,74.6,53.2,120.2,53.2s89.5-19.4,120.2-53.2l3.5-3.8Z"/>
    <g>
      <path d="M-1496.5,494.3c-2.2,6.4-5.7,12.5-10.3,18.1-4.6,5.6-10.5,10.3-17.5,13.9-6.9,3.6-14.9,5.4-23.7,5.4s-20.3-2.5-28.9-7.6c-8.6-5-15.5-12.1-20.4-21-4.9-8.9-7.4-19.3-7.4-30.7s2.5-21.8,7.4-30.7c4.9-8.9,11.7-16,20.4-21,8.6-5,18.3-7.6,28.9-7.6s16.6,1.8,23.7,5.2c7,3.5,12.9,8.1,17.5,13.6,4.6,5.6,8,11.5,10.1,17.6l.4,1.1h11.2l-.6-2c-2.3-7.6-6.3-15-11.9-22-5.6-7-12.8-12.8-21.4-17.3-8.6-4.5-18.4-6.7-29.3-6.7s-23.6,3-33.8,9c-10.2,6-18.4,14.4-24.4,24.9-6,10.6-9,22.6-9,35.8s3,25.3,9,35.8c6,10.6,14.2,19,24.4,24.9,10.2,6,21.5,9,33.8,9s20.7-2.3,29.4-6.8c8.6-4.5,15.9-10.4,21.5-17.5,5.7-7.1,9.7-14.7,12-22.7l.6-2h-11.2l-.4,1.1Z"/>
      <path d="M-1240.3,439.2c-5.7-10.3-13.9-18.5-24.3-24.2-10.4-5.7-22.2-8.6-35.2-8.6h-42v135.9h42c13,0,24.8-2.9,35.2-8.6,10.4-5.7,18.6-13.9,24.3-24.2,5.7-10.3,8.6-22.1,8.6-35.1s-2.9-24.8-8.6-35.1ZM-1242.3,474.3c0,11.2-2.5,21.2-7.3,29.8-4.8,8.6-11.7,15.4-20.3,20.3-8.7,4.8-18.7,7.3-29.8,7.3h-31.2v-114.8h31.2c11,0,21.1,2.5,29.8,7.3,8.7,4.8,15.5,11.6,20.3,20.3,4.8,8.6,7.3,18.7,7.3,29.8Z"/>
    </g>
    <g>
      <polygon points="-626.5 458.7 -637.2 458.7 -637.2 505.4 -704.1 505.4 -704.1 502.8 -653.5 411.7 -665.8 411.7 -715 500.1 -715 516.1 -637.2 516.1 -637.2 547.6 -626.5 547.6 -626.5 516.1 -607.6 516.1 -607.6 505.4 -626.5 505.4 -626.5 458.7"/>
      <path d="M-881.5,461.6c-7.7-4.2-16.9-6.3-27.2-6.3s-10.8.6-15.3,1.9c-.7.2-1.4.4-2.1.6l35.6-46.1h-13.5l-41.6,54.3c-2.8,3.7-5.3,7.3-7.3,10.8-2.1,3.5-3.8,7.4-5.2,11.7-1.4,4.3-2.1,9-2.1,13.9,0,8.6,2.1,16.6,6.3,23.7,4.2,7.2,10.3,12.9,18.1,17.1,7.8,4.1,16.9,6.3,27.1,6.3s19.5-2.1,27.2-6.3c7.7-4.2,13.8-9.9,18-17.1,4.2-7.2,6.3-15.1,6.3-23.7s-2.1-16.6-6.3-23.7c-4.2-7.2-10.2-12.9-18-17.1ZM-867.9,502.4c0,6.9-1.6,13.2-4.8,18.7-3.2,5.5-7.9,9.9-14,13-6.1,3.2-13.5,4.8-21.9,4.8s-15.8-1.6-21.8-4.8c-6-3.1-10.7-7.5-14-13-3.3-5.5-4.9-11.8-4.9-18.7s1.6-13.1,4.9-18.6c3.2-5.5,8-9.9,14-13.1,6.1-3.2,13.4-4.8,21.8-4.8s15.8,1.6,21.9,4.8c6.1,3.2,10.8,7.6,14,13,3.2,5.5,4.8,11.8,4.8,18.6Z"/>
      <path d="M-361.7,487.9c-4.5-5.5-10.7-9.6-18.4-12.3,6.7-2.8,11.9-6.6,15.4-11.3,4-5.4,6.1-11.7,6.1-18.9s-1.8-13.5-5.5-18.9c-3.6-5.4-9-9.6-15.9-12.5-6.8-2.8-15.1-4.3-24.6-4.3s-17.8,1.4-24.5,4.3c-6.8,2.9-12.1,7.1-15.8,12.5-3.6,5.4-5.5,11.8-5.5,18.9s2,13.5,6,18.9c3.5,4.7,8.7,8.5,15.5,11.3-7.7,2.7-13.9,6.8-18.4,12.3-5.1,6.2-7.7,13.7-7.7,22.4s2.1,15.5,6.4,21.4c4.2,5.9,10.2,10.4,17.8,13.4,7.5,2.9,16.3,4.4,26.2,4.4s18.7-1.5,26.2-4.4c7.6-2.9,13.6-7.4,17.9-13.3,4.3-5.9,6.5-13.1,6.5-21.4s-2.6-16.2-7.7-22.4ZM-433.8,488.7c7-5,16.9-7.5,29.2-7.5s22.2,2.5,29.2,7.5c7,4.9,10.3,11.9,10.3,21.3s-3.4,16.7-10.3,21.6c-7,4.9-16.9,7.4-29.2,7.4s-22.2-2.5-29.2-7.4c-6.9-4.9-10.3-11.9-10.3-21.6s3.4-16.4,10.3-21.3ZM-378.4,464.1c-6,4.5-14.8,6.8-26.2,6.8s-20-2.3-26.1-6.8c-6-4.5-8.9-10.5-8.9-18.4s2.9-13.9,8.8-18.5c6-4.6,14.8-6.9,26.2-6.9s20.3,2.3,26.2,6.9c5.9,4.5,8.8,10.6,8.8,18.5s-2.9,13.9-8.9,18.4Z"/>
    </g>
  </g>
  <g>
    <path d="M637.1,711.9c-46.6,0-91.4-19.1-123.7-52.5-32.3,33.4-77.1,52.5-123.7,52.5-94.8,0-171.9-77.1-171.9-171.9s77.1-171.9,171.9-171.9,91.4,19.1,123.7,52.5c32.3-33.4,77.1-52.5,123.7-52.5,94.8,0,171.9,77.1,171.9,171.9s-77.1,171.9-171.9,171.9ZM513.4,645.5l3.5,3.8c30.7,33.8,74.6,53.2,120.2,53.2,89.6,0,162.5-72.9,162.5-162.5s-72.9-162.5-162.5-162.5-89.5,19.4-120.2,53.2l-3.5,3.8-3.5-3.8c-30.7-33.8-74.6-53.2-120.2-53.2-89.6,0-162.5,72.9-162.5,162.5s72.9,162.5,162.5,162.5,89.5-19.4,120.2-53.2l3.5-3.8Z"/>
    <path d="M1530.3,711.9c-46.6,0-91.4-19.1-123.7-52.5-32.3,33.4-77.1,52.5-123.7,52.5s-91.4-19.1-123.7-52.5c-32.3,33.4-77.1,52.5-123.7,52.5-94.8,0-171.9-77.1-171.9-171.9s77.1-171.9,171.9-171.9,91.4,19.1,123.7,52.5c32.3-33.4,77.1-52.5,123.7-52.5s91.4,19.1,123.7,52.5c32.3-33.4,77.1-52.5,123.7-52.5,94.8,0,171.9,77.1,171.9,171.9s-77.1,171.9-171.9,171.9ZM1406.6,645.5l3.5,3.8c30.7,33.8,74.6,53.2,120.2,53.2,89.6,0,162.5-72.9,162.5-162.5s-72.9-162.5-162.5-162.5-89.5,19.4-120.2,53.2l-3.5,3.8-3.5-3.8c-30.7-33.8-74.6-53.2-120.2-53.2s-89.5,19.4-120.2,53.2l-3.5,3.8-3.5-3.8c-30.7-33.8-74.6-53.2-120.2-53.2-89.6,0-162.5,72.9-162.5,162.5s72.9,162.5,162.5,162.5,89.5-19.4,120.2-53.2l3.5-3.8,3.5,3.8c30.7,33.8,74.6,53.2,120.2,53.2s89.5-19.4,120.2-53.2l3.5-3.8Z"/>
    <g>
      <path d="M443.5,554.6c-2.2,6.4-5.7,12.5-10.3,18.1-4.6,5.6-10.5,10.3-17.5,13.9-6.9,3.6-14.9,5.4-23.7,5.4s-20.3-2.5-28.9-7.6c-8.6-5-15.5-12.1-20.4-21-4.9-8.9-7.4-19.3-7.4-30.7s2.5-21.8,7.4-30.7c4.9-8.9,11.7-16,20.4-21,8.6-5,18.3-7.6,28.9-7.6s16.6,1.8,23.7,5.2c7,3.5,12.9,8.1,17.5,13.6,4.6,5.6,8,11.5,10.1,17.6l.4,1.1h11.2l-.6-2c-2.3-7.6-6.3-15-11.9-22-5.6-7-12.8-12.8-21.4-17.3-8.6-4.5-18.4-6.7-29.3-6.7s-23.6,3-33.8,9c-10.2,6-18.4,14.4-24.4,24.9-6,10.6-9,22.6-9,35.8s3,25.3,9,35.8c6,10.6,14.2,19,24.4,24.9,10.2,6,21.5,9,33.8,9s20.7-2.3,29.4-6.8c8.6-4.5,15.9-10.4,21.5-17.5,5.7-7.1,9.7-14.7,12-22.7l.6-2h-11.2l-.4,1.1Z"/>
      <path d="M699.7,499.6c-5.7-10.3-13.9-18.5-24.3-24.2-10.4-5.7-22.2-8.6-35.2-8.6h-42v135.9h42c13,0,24.8-2.9,35.2-8.6,10.4-5.7,18.6-13.9,24.3-24.2,5.7-10.3,8.6-22.1,8.6-35.1s-2.9-24.8-8.6-35.1ZM697.7,534.7c0,11.2-2.5,21.2-7.3,29.8-4.8,8.6-11.7,15.4-20.3,20.3-8.7,4.8-18.7,7.3-29.8,7.3h-31.2v-114.8h31.2c11,0,21.1,2.5,29.8,7.3,8.7,4.8,15.5,11.6,20.3,20.3,4.8,8.6,7.3,18.7,7.3,29.8Z"/>
    </g>
    <g>
      <polygon points="1313.5 519.1 1302.8 519.1 1302.8 565.7 1235.9 565.7 1235.9 563.2 1286.5 472.1 1274.2 472.1 1225 560.4 1225 576.5 1302.8 576.5 1302.8 607.9 1313.5 607.9 1313.5 576.5 1332.4 576.5 1332.4 565.7 1313.5 565.7 1313.5 519.1"/>
      <path d="M1058.5,521.9c-7.7-4.2-16.9-6.3-27.2-6.3s-10.8.6-15.3,1.9c-.7.2-1.4.4-2.1.6l35.6-46.1h-13.5l-41.6,54.3c-2.8,3.7-5.3,7.3-7.3,10.8-2.1,3.5-3.8,7.4-5.2,11.7-1.4,4.3-2.1,9-2.1,13.9,0,8.6,2.1,16.6,6.3,23.7,4.2,7.2,10.3,12.9,18.1,17.1,7.8,4.1,16.9,6.3,27.1,6.3s19.5-2.1,27.2-6.3c7.7-4.2,13.8-9.9,18-17.1,4.2-7.2,6.3-15.1,6.3-23.7s-2.1-16.6-6.3-23.7c-4.2-7.2-10.2-12.9-18-17.1ZM1072.1,562.7c0,6.9-1.6,13.2-4.8,18.7-3.2,5.5-7.9,9.9-14,13-6.1,3.2-13.5,4.8-21.9,4.8s-15.8-1.6-21.8-4.8c-6-3.1-10.7-7.5-14-13-3.3-5.5-4.9-11.8-4.9-18.7s1.6-13.1,4.9-18.6c3.2-5.5,8-9.9,14-13.1,6.1-3.2,13.4-4.8,21.8-4.8s15.8,1.6,21.9,4.8c6.1,3.2,10.8,7.6,14,13,3.2,5.5,4.8,11.8,4.8,18.6Z"/>
      <path d="M1578.3,548.3c-4.5-5.5-10.7-9.6-18.4-12.3,6.7-2.8,11.9-6.6,15.4-11.3,4-5.4,6.1-11.7,6.1-18.9s-1.8-13.5-5.5-18.9c-3.6-5.4-9-9.6-15.9-12.5-6.8-2.8-15.1-4.3-24.6-4.3s-17.8,1.4-24.5,4.3c-6.8,2.9-12.1,7.1-15.8,12.5-3.6,5.4-5.5,11.8-5.5,18.9s2,13.5,6,18.9c3.5,4.7,8.7,8.5,15.5,11.3-7.7,2.7-13.9,6.8-18.4,12.3-5.1,6.2-7.7,13.7-7.7,22.4s2.1,15.5,6.4,21.4c4.2,5.9,10.2,10.4,17.8,13.4,7.5,2.9,16.3,4.4,26.2,4.4s18.7-1.5,26.2-4.4c7.6-2.9,13.6-7.4,17.9-13.3,4.3-5.9,6.5-13.1,6.5-21.4s-2.6-16.2-7.7-22.4ZM1506.2,549.1c7-5,16.9-7.5,29.2-7.5s22.2,2.5,29.2,7.5c7,4.9,10.3,11.9,10.3,21.3s-3.4,16.7-10.3,21.6c-7,4.9-16.9,7.4-29.2,7.4s-22.2-2.5-29.2-7.4c-6.9-4.9-10.3-11.9-10.3-21.6s3.4-16.4,10.3-21.3ZM1561.6,524.4c-6,4.5-14.8,6.8-26.2,6.8s-20-2.3-26.1-6.8c-6-4.5-8.9-10.5-8.9-18.4s2.9-13.9,8.8-18.5c6-4.6,14.8-6.9,26.2-6.9s20.3,2.3,26.2,6.9c5.9,4.5,8.8,10.6,8.8,18.5s-2.9,13.9-8.9,18.4Z"/>
    </g>
  </g>
</svg>