<?xml version="1.0" encoding="UTF-8"?>
<svg version="1.1" xmlns="http://www.w3.org/2000/svg" width="2000" height="1258">
<path d="M0 0 C0.56912109 0.53512207 1.13824219 1.07024414 1.72460938 1.62158203 C40.76871198 38.63942325 60.97114736 93.40381895 63.10786438 146.68995667 C63.16285929 149.41993191 63.19025392 152.14840967 63.203125 154.87890625 C63.21013931 155.88099121 63.21715363 156.88307617 63.22438049 157.91552734 C63.24178344 161.13123117 63.24823263 164.34675082 63.25 167.5625 C63.25101212 169.21063187 63.25101212 169.21063187 63.25204468 170.89205933 C63.23619606 187.12237681 62.86529124 202.98232311 60 219 C59.82839355 219.99032227 59.65678711 220.98064453 59.47998047 222.00097656 C55.64610988 243.53780456 49.68473115 264.35138691 40 284 C39.65211426 284.71349609 39.30422852 285.42699219 38.94580078 286.16210938 C14.61451063 335.5596394 -29.44063242 369.51540987 -80.83764648 387.59228516 C-107.63211511 396.68288902 -135.31687775 401.97904593 -163.5 404.25 C-164.48871094 404.33024414 -165.47742188 404.41048828 -166.49609375 404.49316406 C-175.66331043 405.14065144 -184.81628821 405.09232115 -194 405 C-194.76987244 404.9924469 -195.53974487 404.9848938 -196.33294678 404.97711182 C-234.36953629 404.56068561 -270.93867247 401.27018413 -307.44091797 389.80371094 C-309.66568059 389.10499709 -311.89538941 388.42781181 -314.12890625 387.7578125 C-366.28006696 371.44299415 -411.77975002 335.65475789 -437.43066406 287.30322266 C-456.77568147 249.80355039 -464.21550115 208.59255966 -464.25 166.625 C-464.25067474 165.8748764 -464.25134949 165.12475281 -464.25204468 164.35189819 C-464.18092553 113.82473587 -453.75651654 62.58122368 -422 22 C-421.26910156 21.06542969 -420.53820312 20.13085938 -419.78515625 19.16796875 C-415.17575931 13.4081924 -410.3086272 8.11440914 -405 3 C-404.19691406 2.195625 -403.39382813 1.39125 -402.56640625 0.5625 C-393.41582877 -8.57414966 -383.82753568 -15.99022013 -373 -23 C-372.1035376 -23.58563721 -372.1035376 -23.58563721 -371.18896484 -24.18310547 C-297.07167565 -72.13156227 -192.39422317 -74.89431863 0 0 Z M-277.12109375 90.26953125 C-286.70724947 101.53746868 -292.45279492 114.75962145 -296 129 C-296.3196875 130.23621094 -296.639375 131.47242188 -296.96875 132.74609375 C-304.81809529 167.63885245 -300.37692749 214.95120519 -281.6875 245.8125 C-277.95871176 251.34394745 -273.66022155 256.23865249 -269 261 C-268.48308594 261.55300781 -267.96617187 262.10601563 -267.43359375 262.67578125 C-247.92518913 281.57295648 -215.23086605 281.29548804 -190 281 C-164.9677087 279.95535375 -141.05086202 272.98785727 -123 255 C-122.37480469 254.39800781 -121.74960937 253.79601562 -121.10546875 253.17578125 C-100.88846131 232.13731527 -98.41066193 196.66193321 -98.8515625 169.2109375 C-99.70557631 139.40445568 -106.57121601 105.47644497 -128.2265625 83.6171875 C-148.08726223 64.87540043 -176.05671844 60.26344241 -202.42578125 60.8125 C-230.98844807 61.79635935 -257.00409906 68.74471741 -277.12109375 90.26953125 Z " fill="#191D60" transform="translate(1120,386)"/>
<path d="M0 0 C49.5 0 99 0 150 0 C150.1613254 72.81152885 150.1613254 72.81152885 150.1953125 103.3359375 C150.20314259 110.32128944 150.21122412 117.30664103 150.21972656 124.29199219 C150.22078156 125.1673491 150.22183655 126.04270602 150.22292352 126.9445889 C150.24026461 141.0294686 150.27176849 155.11428219 150.30861118 169.19912285 C150.34617438 183.68147354 150.36826814 198.16378991 150.37635398 212.64618731 C150.38181008 221.56422783 150.39896677 230.48208149 150.43166587 239.40006441 C150.45300426 245.53669167 150.459157 251.673224 150.45400551 257.80988556 C150.45147332 261.33695055 150.45502118 264.86369185 150.4768219 268.39069748 C150.58754338 289.440677 149.04887644 309.96841166 142.8125 330.1875 C142.51698242 331.16614014 142.22146484 332.14478027 141.91699219 333.15307617 C133.41555659 360.40030913 119.62106402 384.28709281 100 405 C99.11957031 405.94488281 98.23914062 406.88976562 97.33203125 407.86328125 C57.60725825 449.63537119 -3.44320743 464.65201359 -59.23291016 466.1262207 C-63.57190221 466.21684508 -67.91013509 466.24603095 -72.25 466.25 C-73.03126251 466.25100708 -73.81252502 466.25201416 -74.61746216 466.25305176 C-100.19814305 466.23116785 -125.9893136 464.58269827 -151 459 C-151.85867676 458.81711426 -152.71735352 458.63422852 -153.60205078 458.44580078 C-202.68297875 447.95363408 -249.97151007 424.1532977 -278 381 C-278.58998779 380.11248047 -278.58998779 380.11248047 -279.19189453 379.20703125 C-285.87703674 369.06519477 -290.64938712 358.31507199 -295 347 C-295.47308594 345.79085938 -295.94617187 344.58171875 -296.43359375 343.3359375 C-299.1929878 335.71966608 -301.02382221 327.9807484 -302.6875 320.0625 C-302.89012451 319.12970215 -303.09274902 318.1969043 -303.30151367 317.23583984 C-307.24995862 297.32724341 -307.29348946 276.862439 -307.24291992 256.6496582 C-307.2439962 254.10879467 -307.24593999 251.56793138 -307.24867249 249.02706909 C-307.25297314 242.9071549 -307.24815345 236.78730955 -307.23882218 230.6674029 C-307.22831036 223.50946049 -307.22851171 216.3515292 -307.22899476 209.19358053 C-307.2294927 196.40630462 -307.22040638 183.61905393 -307.20581055 170.83178711 C-307.19171975 158.48021994 -307.18464041 146.12867493 -307.18530273 133.77709961 C-307.18534269 133.01567259 -307.18538265 132.25424558 -307.18542381 131.46974502 C-307.18546417 130.70951158 -307.18550452 129.94927815 -307.1855461 129.16600734 C-307.18623935 115.01788397 -307.18032773 100.86976983 -307.17139288 86.72164947 C-307.16840174 81.7553996 -307.16731637 76.78915145 -307.16686058 71.82290077 C-307.16609946 65.11758871 -307.15967272 58.4123025 -307.14969444 51.70699692 C-307.1468029 49.26309918 -307.14553717 46.81919883 -307.14612198 44.37529945 C-307.1466224 41.00764808 -307.1408645 37.64005789 -307.13371277 34.27241516 C-307.13526137 33.3344182 -307.13680997 32.39642124 -307.1384055 31.43000013 C-307.10334351 21.2501899 -306.4859453 11.2048512 -306 1 C-256.83 1 -207.66 1 -157 1 C-156.98582031 22.62660156 -156.97164062 44.25320313 -156.95703125 66.53515625 C-156.93697624 80.22982871 -156.91569536 93.92448276 -156.88867188 107.61914062 C-156.87453853 114.81420829 -156.86071564 122.00927645 -156.84741211 129.2043457 C-156.84573192 130.10606784 -156.84405173 131.00778997 -156.84232062 131.93683702 C-156.81568577 146.47387762 -156.80656114 161.01087877 -156.80395857 175.54794127 C-156.80089369 190.4789225 -156.77888523 205.40979017 -156.73947543 220.34072012 C-156.7157701 229.54590571 -156.70665033 238.75086427 -156.71648689 247.95607614 C-156.72182328 254.2777229 -156.70867569 260.59916717 -156.6813371 266.92075629 C-156.66612445 270.56216565 -156.65873109 274.2031215 -156.67340279 277.84454346 C-156.75411222 299.89504442 -155.18860248 318.28528799 -139.4375 335.25 C-123.74705101 350.05949813 -103.31504529 354.41245693 -82.3125 354.3125 C-81.08515137 354.30758545 -79.85780273 354.3026709 -78.59326172 354.29760742 C-56.58629753 354.01494651 -34.69115347 348.89955987 -18.28515625 333.3515625 C-5.42811813 320.12090105 -0.52296475 305.45947257 -0.60127258 287.16778564 C-0.59462576 285.93246684 -0.58797893 284.69714803 -0.58113068 283.42439532 C-0.56581588 280.03087808 -0.56364273 276.63783306 -0.56726015 273.24431562 C-0.56788799 269.57165535 -0.55122682 265.89906657 -0.53674316 262.22644043 C-0.51402547 255.87510893 -0.5020839 249.52383203 -0.49761391 243.17246246 C-0.49113537 233.98964141 -0.46816816 224.80691875 -0.44127061 215.62413749 C-0.39806702 200.72307168 -0.36806362 185.82201004 -0.34643555 170.92089844 C-0.32540655 156.45212762 -0.29808076 141.98339097 -0.26245117 127.51464844 C-0.25913091 126.16159603 -0.25913091 126.16159603 -0.25574356 124.78120923 C-0.23838165 117.72593809 -0.22065638 110.67066788 -0.20281637 103.61539793 C-0.11557507 69.07695319 -0.06000582 34.53852354 0 0 Z " fill="#191D60" transform="translate(1545,324)"/>
<path d="M0 0 C44.72293364 -1.77333351 44.72293364 -1.77333351 63.63476562 -2.1484375 C76.63983035 -2.40847499 89.63207512 -2.71338114 102.6262207 -3.31933594 C175.03752316 -6.6312804 175.03752316 -6.6312804 189.74273682 4.28344727 C200.02905598 13.73930708 205.63386951 26.05122 210.1476593 39.04577637 C212.36298188 45.33222961 215.75419029 49.88005613 220 55 C221.02593774 56.46022231 222.03297082 57.93395596 223.01831055 59.421875 C223.48571655 60.12465073 223.95312256 60.82742645 224.43469238 61.55149841 C224.91386108 62.27700394 225.39302979 63.00250946 225.88671875 63.75 C226.68487 64.95143394 226.68487 64.95143394 227.49914551 66.17713928 C228.63941772 67.89375189 229.77870932 69.61101622 230.91708374 71.32888794 C233.98060502 75.95096967 237.05280339 80.56727548 240.125 85.18359375 C241.08070137 86.61994423 241.08070137 86.61994423 242.05570984 88.08531189 C249.39289972 99.10469057 256.78601067 110.08624757 264.1875 121.0625 C264.82795258 122.01326416 265.46840515 122.96402832 266.12826538 123.94360352 C267.93190878 126.62080532 269.73712838 129.29693601 271.54296875 131.97265625 C272.08328735 132.77478043 272.62360596 133.5769046 273.18029785 134.40333557 C273.67147095 135.13012009 274.16264404 135.8569046 274.66870117 136.60571289 C275.09720871 137.24070206 275.52571625 137.87569122 275.96720886 138.52992249 C276.92376341 139.98113242 276.92376341 139.98113242 278 141 C278.87398438 139.58074219 278.87398438 139.58074219 279.765625 138.1328125 C284.63472551 130.26306947 289.62578745 122.49363644 294.7824707 114.80957031 C299.88459519 107.19765019 304.9135478 99.53862114 309.9375 91.875 C310.38558014 91.19163574 310.83366028 90.50827148 311.2953186 89.80419922 C313.60724662 86.2782399 315.91874477 82.7519991 318.22998047 79.22558594 C322.2174918 73.14204146 326.20903938 67.06114654 330.20040894 60.98013306 C331.49778082 59.00338127 332.7949451 57.02649342 334.09204102 55.04956055 C338.15809611 48.85256939 342.2252357 42.65629752 346.29595947 36.46237183 C348.1986006 33.5672177 350.10066371 30.67168405 352.00268555 27.77612305 C352.90132401 26.4084212 353.80023926 25.04090117 354.69946289 23.67358398 C355.95401163 21.76593684 357.20756431 19.8576384 358.4609375 17.94921875 C359.55382735 16.28655178 360.64821051 14.62443826 361.78007221 12.98805237 C363.10628948 10.93846043 363.10628948 10.93846043 364.14927197 8.27842712 C365.77419719 4.89234311 367.25865956 2.586897 370 0 C375.81462338 -1.64117235 381.50212455 -1.39379573 387.50170898 -1.2487793 C389.29582019 -1.24567449 391.08994537 -1.24742206 392.88404846 -1.25364685 C397.7442135 -1.25679889 402.60138284 -1.19220799 407.46085238 -1.11533332 C412.54292462 -1.04649293 417.62506825 -1.04010156 422.70753479 -1.02705383 C432.32693975 -0.99288573 441.94496693 -0.90265005 451.56376559 -0.79220945 C462.51636604 -0.66918873 473.46903287 -0.60876046 484.4221524 -0.55355966 C506.948865 -0.43863016 529.47435525 -0.24519296 552 0 C550.1583692 3.79935883 547.91777851 7.25364924 545.5625 10.75 C545.12220459 11.40685791 544.68190918 12.06371582 544.22827148 12.74047852 C539.66917494 19.52485795 535.03527265 26.25758235 530.39111328 32.98388672 C528.08955816 36.31948556 525.795121 39.65997241 523.5 43 C522.58336788 44.33335708 521.6667012 45.66669041 520.75 47 C520.29625 47.66 519.8425 48.32 519.375 49 C449.25 151 449.25 151 447.87548828 152.99926758 C446.95716639 154.33502333 446.0388722 155.67079812 445.12060547 157.0065918 C442.85448843 160.30301745 440.58791941 163.59913027 438.3203125 166.89453125 C433.37016619 174.08951135 428.42977219 181.29104237 423.5 188.5 C417.23796364 197.65716854 410.9549293 206.79975501 404.66601562 215.93847656 C399.26677212 223.78511438 393.87651016 231.63776368 388.5 239.5 C383.13243067 247.34916185 377.75087405 255.18856159 372.36035156 263.02197266 C370.94480287 265.08025971 369.53081862 267.1396143 368.1171875 269.19921875 C367.63717285 269.89829346 367.1571582 270.59736816 366.66259766 271.31762695 C365.76349269 272.62712531 364.86469557 273.93683513 363.96630859 275.24682617 C363.54945801 275.85373291 363.13260742 276.46063965 362.703125 277.0859375 C362.30558549 277.68274385 361.90804598 278.27955021 361.49845982 278.8944416 C360 281 360 281 358.23593807 282.99087334 C351.91732686 290.59130652 352.01210328 298.05290962 352.11352539 307.46533203 C352.1056251 309.11212334 352.09465612 310.75890234 352.08087158 312.40565491 C352.0522806 316.84948963 352.06631342 321.2922643 352.08831334 325.73609781 C352.10400064 330.38997236 352.08005448 335.04364389 352.06040955 339.69747925 C352.02923207 348.49813622 352.03341997 357.29840253 352.05048412 366.09908378 C352.07149987 377.99986175 352.03754009 389.90047672 352.00674725 401.80121231 C351.95971775 420.53432412 351.98584174 439.26660306 352 458 C302.83 458 253.66 458 203 458 C203.05542969 446.1303125 203.11085938 434.260625 203.16796875 422.03125 C203.17857423 414.49342729 203.18638482 406.9557716 203.18164062 399.41796875 C203.1746334 387.46402602 203.17875147 375.5108579 203.25708008 363.55712891 C203.31408786 354.84913786 203.33194066 346.14206703 203.3040064 337.43391943 C203.29056749 332.82838396 203.29589781 328.22469675 203.34822655 323.61940002 C204.55661705 298.86587363 204.55661705 298.86587363 193.70983887 277.66163635 C192.81559204 276.78329636 191.92134521 275.90495636 191 275 C189.7710978 273.31711512 188.56982975 271.61277545 187.42578125 269.87109375 C186.38862151 268.39280755 185.35086124 266.9149425 184.3125 265.4375 C179.23514706 258.1977804 174.17313941 250.94762107 169.125 243.6875 C168.45911865 242.7298877 167.7932373 241.77227539 167.10717773 240.78564453 C164.3907479 236.87850914 161.67487797 232.97098471 158.95898438 229.06347656 C151.98649778 219.03258861 145.01019242 209.00458593 138 199 C133.02851234 191.90494861 128.07135433 184.8000971 123.125 177.6875 C122.46669189 176.74092529 121.80838379 175.79435059 121.13012695 174.8190918 C117.59674629 169.73736132 114.06536693 164.65424556 110.53515625 159.5703125 C109.80731934 158.52270752 109.07948242 157.47510254 108.32958984 156.39575195 C106.93214242 154.38431321 105.53530382 152.37245132 104.13916016 150.36010742 C103.50929199 149.45365479 102.87942383 148.54720215 102.23046875 147.61328125 C101.40131958 146.41892456 101.40131958 146.41892456 100.55541992 145.20043945 C99.50768364 143.71821576 98.42040355 142.26326149 97.2980957 140.83666992 C96 139 96 139 96 137 C64.32 137 32.64 137 0 137 C0 91.79 0 46.58 0 0 Z " fill="#191D60" transform="translate(142,324)"/>
<path d="M0 0 C6.27 0 12.54 0 19 0 C24.28 22.44 29.56 44.88 35 68 C36.53797281 64.15506798 37.59369324 60.8549144 38.49633789 56.86450195 C38.91170555 55.04285271 38.91170555 55.04285271 39.33546448 53.18440247 C39.6312049 51.86903094 39.92693525 50.55365715 40.22265625 49.23828125 C40.53085593 47.88248587 40.83949194 46.52678962 41.14854431 45.17118835 C41.95874914 41.61355158 42.76452261 38.05492809 43.56890869 34.49597168 C44.8590085 28.78903082 46.15350378 23.08309749 47.45245171 17.37816429 C47.90509934 15.38554251 48.35441171 13.39218851 48.80348206 11.39875793 C49.07724167 10.19378159 49.35100128 8.98880524 49.63305664 7.74731445 C49.87351212 6.68317825 50.11396759 5.61904205 50.36170959 4.5226593 C51 2 51 2 52 0 C58.27 0 64.54 0 71 0 C71 36.63 71 73.26 71 111 C64.73 111 58.46 111 52 111 C51.67 98.46 51.34 85.92 51 73 C48.36 85.54 45.72 98.08 43 111 C38.38 111 33.76 111 29 111 C27.71413811 107.78534529 26.73431085 105.30136221 26.03857422 102.03588867 C25.87639404 101.28529175 25.71421387 100.53469482 25.54711914 99.76135254 C25.30336548 98.60137756 25.30336548 98.60137756 25.0546875 97.41796875 C24.89943604 96.69565063 24.74418457 95.97333252 24.58422852 95.22912598 C24.00965589 92.54961509 23.44277568 89.86845935 22.875 87.1875 C20.956875 78.1846875 20.956875 78.1846875 19 69 C18.67 82.86 18.34 96.72 18 111 C12.06 111 6.12 111 0 111 C0 74.37 0 37.74 0 0 Z " fill="#1E130F" transform="translate(1117,824)"/>
<path d="M0 0 C9.27007244 6.70180647 15.67328604 13.80553058 18.1015625 25.33984375 C19.74385371 39.25369983 18.23921322 52.4796886 9.3828125 63.72265625 C-0.94072089 74.04618964 -12.45456181 77.0384504 -26.59716797 77.10986328 C-36.9848846 76.92350836 -46.07597049 72.89188498 -53.6171875 65.72265625 C-61.5345747 57.03194286 -65.51388313 46.48057105 -65.65234375 34.7421875 C-65.01601418 22.74504713 -61.10089689 13.29412815 -52.6171875 4.72265625 C-37.11066198 -8.50349787 -17.46621768 -11.42885948 0 0 Z " fill="#191D60" transform="translate(1764.6171875,714.27734375)"/>
<path d="M0 0 C6.27 0 12.54 0 19 0 C22.3 14.85 25.6 29.7 29 45 C29.33 30.15 29.66 15.3 30 0 C35.94 0 41.88 0 48 0 C48 36.63 48 73.26 48 111 C41.73 111 35.46 111 29 111 C25.11785678 97.11387233 22.08350468 83.08601001 19 69 C18.67 82.86 18.34 96.72 18 111 C12.06 111 6.12 111 0 111 C0 74.37 0 37.74 0 0 Z " fill="#1E130F" transform="translate(1048,824)"/>
<path d="M0 0 C6.27 0 12.54 0 19 0 C22.3 14.52 25.6 29.04 29 44 C29.33 29.48 29.66 14.96 30 0 C35.94 0 41.88 0 48 0 C48 36.63 48 73.26 48 111 C41.73 111 35.46 111 29 111 C25.32832804 96.73696661 22.1646383 82.38471957 19 68 C18.67 82.19 18.34 96.38 18 111 C12.06 111 6.12 111 0 111 C0 74.37 0 37.74 0 0 Z " fill="#1E130F" transform="translate(774,824)"/>
<path d="M0 0 C35.36842105 0 35.36842105 0 41.875 5.375 C48.64227845 13.73457927 48.2324226 21.39710006 48.3125 31.8125 C48.34150391 33.05837891 48.37050781 34.30425781 48.40039062 35.58789062 C48.45080249 42.89761156 48.01685896 47.82193677 44 54 C43.34 54.66 42.68 55.32 42 56 C42.61875 56.556875 43.2375 57.11375 43.875 57.6875 C49.49914007 63.80788772 48.33179917 71.49633687 48.3125 79.3125 C48.32861328 80.60607422 48.34472656 81.89964844 48.36132812 83.23242188 C48.36560605 91.59577497 47.66645124 97.48754405 43.375 104.75 C31.5792524 115.92491878 14.96457008 111 0 111 C0 74.37 0 37.74 0 0 Z M19 18 C19 27.24 19 36.48 19 46 C21.64 46 24.28 46 27 46 C29.90545644 41.64181534 29.36810407 37.68962547 29.375 32.5625 C29.39949219 31.60794922 29.42398437 30.65339844 29.44921875 29.66992188 C29.50057579 24.22255111 29.50057579 24.22255111 27.3515625 19.33984375 C24.58221561 17.50494947 24.58221561 17.50494947 19 18 Z M19 65 C19 74.24 19 83.48 19 93 C25.38914079 93.62129785 25.38914079 93.62129785 27.91259766 91.79663086 C29.31114961 89.48591154 29.387559 87.94996038 29.3984375 85.25390625 C29.40230469 84.33416016 29.40617187 83.41441406 29.41015625 82.46679688 C29.39855469 81.50837891 29.38695312 80.54996094 29.375 79.5625 C29.38660156 78.60794922 29.39820313 77.65339844 29.41015625 76.66992188 C29.40435547 75.28836914 29.40435547 75.28836914 29.3984375 73.87890625 C29.39505371 73.0391626 29.39166992 72.19941895 29.38818359 71.33422852 C28.88891702 68.332035 28.29056211 67.03004503 26 65 C23.69 65 21.38 65 19 65 Z " fill="#1E130F" transform="translate(1276,824)"/>
<path d="M0 0 C7.89550084 8.51196637 6.74400031 20.61110438 6.69921875 31.33984375 C6.7012433 33.05420047 6.70415791 34.76855636 6.70791626 36.48291016 C6.71232168 40.06356055 6.70596633 43.64398535 6.69189453 47.22460938 C6.67480366 51.79397544 6.68465445 56.36281271 6.70261192 60.93215942 C6.71349815 64.46854574 6.70998132 68.00480851 6.70222855 71.54119873 C6.70023989 73.22515934 6.70263844 74.9091315 6.70966721 76.59307861 C6.77353988 96.19270805 6.77353988 96.19270805 1.50390625 103.0546875 C-6.66218278 109.73454832 -14.31552475 110.53731456 -24.69921875 109.71484375 C-30.42176377 108.52574349 -34.6694894 105.83828774 -38.69921875 101.71484375 C-43.90128964 92.20761075 -42.86206633 81.2387826 -42.8671875 70.71875 C-42.87040658 69.15990672 -42.87377113 67.60106374 -42.87727356 66.04222107 C-42.88323816 62.78522034 -42.88511614 59.52824604 -42.88452148 56.27124023 C-42.88441984 52.1178498 -42.89808644 47.96463022 -42.91529369 43.81128025 C-42.92646238 40.5948968 -42.92843923 37.37855409 -42.92791176 34.16215324 C-42.92908399 32.63169706 -42.93346274 31.10123954 -42.94124413 29.57080269 C-43.03794584 8.59425611 -43.03794584 8.59425611 -37.25390625 1.21875 C-27.7502931 -7.97444363 -10.25926038 -7.75930268 0 0 Z M-20.69921875 13.71484375 C-23.56703358 16.58265858 -22.95945683 18.57886332 -22.97387695 22.59545898 C-22.97898788 23.30294281 -22.98409882 24.01042664 -22.98936462 24.73934937 C-23.00329436 27.08413084 -23.00230133 29.4286195 -23 31.7734375 C-23.00388519 33.40007131 -23.00821949 35.0267041 -23.01298523 36.65333557 C-23.02045478 40.06555467 -23.02015095 43.47767031 -23.01489258 46.88989258 C-23.00909803 51.26609936 -23.02602477 55.64188289 -23.04923725 60.01801968 C-23.06395825 63.3783059 -23.06484852 66.73848982 -23.06172752 70.09880257 C-23.0622416 71.71237082 -23.06749546 73.32594466 -23.07753944 74.93948174 C-23.08985481 77.19488005 -23.08314239 79.44944928 -23.0715332 81.70483398 C-23.07216263 82.9889769 -23.07279205 84.27311981 -23.07344055 85.59617615 C-22.95239491 88.67922731 -22.95239491 88.67922731 -21.33610535 90.66078186 C-19.66381498 91.96215281 -19.66381498 91.96215281 -17.13671875 91.58984375 C-14.37305765 90.87095207 -14.37305765 90.87095207 -12.69921875 87.71484375 C-12.40043284 84.60014753 -12.40043284 84.60014753 -12.45629883 80.99609375 C-12.45440048 80.31772461 -12.45250214 79.63935547 -12.45054626 78.94042969 C-12.44684214 76.69845007 -12.45753766 74.45679457 -12.46875 72.21484375 C-12.46994217 70.65690143 -12.47039488 69.09895838 -12.47013855 67.54101562 C-12.47170281 64.27599589 -12.47998786 61.01108588 -12.4934082 57.74609375 C-12.51039793 53.55949956 -12.51422248 49.37302599 -12.51346302 45.18640137 C-12.51373487 41.96938932 -12.51921847 38.75240366 -12.52646446 35.53540039 C-12.5296481 33.99161987 -12.53161783 32.44783636 -12.53235817 30.90405273 C-12.53452496 28.74718118 -12.54327652 26.59043779 -12.55395508 24.43359375 C-12.55776688 23.20576172 -12.56157867 21.97792969 -12.56550598 20.71289062 C-12.56453363 17.66282494 -12.56453363 17.66282494 -13.69921875 14.71484375 C-17.10242809 14.03810928 -17.10242809 14.03810928 -20.69921875 13.71484375 Z " fill="#1E130F" transform="translate(747.69921875,827.28515625)"/>
<path d="M0 0 C35.82608696 0 35.82608696 0 43 6.875 C47.6575592 14.15243625 47.34083091 21.45395281 47.31567383 29.79492188 C47.31250865 31.99399163 47.33602795 34.1917206 47.36132812 36.390625 C47.36360111 37.80208165 47.36430462 39.21354189 47.36328125 40.625 C47.36626221 41.89601563 47.36924316 43.16703125 47.37231445 44.4765625 C46.87908593 49.14428322 45.43347085 52.50820806 42.17578125 55.8984375 C40.45052083 57.265625 38.72526042 58.6328125 37 60 C38.30625645 66.40113714 40.04731924 72.41644975 42.2578125 78.55859375 C42.56572723 79.42895767 42.87364197 80.29932159 43.19088745 81.19606018 C44.16398354 83.944991 45.14392526 86.69140762 46.125 89.4375 C47.11244907 92.2088443 48.09835088 94.98070702 49.08053589 97.75392151 C49.6893691 99.47230993 50.30135098 101.18958665 50.91677856 102.90562439 C53 108.77585601 53 108.77585601 53 111 C46.07 111 39.14 111 32 111 C30.91545251 107.07141348 29.83101217 103.1427976 28.74682617 99.21411133 C28.37937287 97.88271464 28.01186164 96.55133393 27.64428711 95.2199707 C27.11035482 93.28601404 26.57664385 91.3519964 26.04296875 89.41796875 C25.56380005 87.68196411 25.56380005 87.68196411 25.07495117 85.91088867 C23.70935818 80.94258659 22.3557281 75.97100303 21 71 C20.67 84.2 20.34 97.4 20 111 C13.4 111 6.8 111 0 111 C0 74.37 0 37.74 0 0 Z M19 18 C19 27.24 19 36.48 19 46 C21.31 46 23.62 46 26 46 C29.50644767 42.49355233 28.36926209 37.31062231 28.375 32.5625 C28.39949219 31.49966797 28.42398437 30.43683594 28.44921875 29.34179688 C28.45308594 28.32279297 28.45695312 27.30378906 28.4609375 26.25390625 C28.46915527 25.31877197 28.47737305 24.3836377 28.48583984 23.42016602 C28.19931074 20.89017879 28.19931074 20.89017879 26.28369141 19.17163086 C23.68633617 17.61960578 23.68633617 17.61960578 19 18 Z " fill="#1E130F" transform="translate(1552,824)"/>
<path d="M0 0 C6.27 0 12.54 0 19 0 C19.02505615 2.71065674 19.0501123 5.42131348 19.07592773 8.21411133 C19.15931364 17.15885027 19.24801086 26.10353082 19.33933926 35.04819202 C19.39456081 40.47261829 19.44797966 45.89704995 19.49731445 51.3215332 C19.54496923 56.55406638 19.59731256 61.78653338 19.65294075 67.01898766 C19.67335923 69.01770065 19.69207316 71.01643179 19.70907402 73.01517677 C19.73312914 75.80941976 19.76318233 78.60353746 19.79467773 81.39770508 C19.80331093 82.64387604 19.80331093 82.64387604 19.81211853 83.91522217 C19.85423496 87.19113922 19.9569704 89.8709112 21 93 C22.86196946 93.92393164 22.86196946 93.92393164 25 94 C26.485 93.01 26.485 93.01 28 92 C28.31589393 89.04236432 28.43735617 86.28981429 28.43237305 83.32763672 C28.4425647 82.43001617 28.45275635 81.53239563 28.46325684 80.60757446 C28.49352499 77.63154979 28.5026738 74.65584623 28.51171875 71.6796875 C28.5285552 69.61987222 28.54670402 67.56006728 28.56611633 65.50027466 C28.61373477 60.07187124 28.64346743 54.64350972 28.66955566 49.21496582 C28.69930157 43.67838257 28.74585229 38.1419439 28.79101562 32.60546875 C28.87718355 21.73703791 28.94291624 10.86862256 29 0 C35.6 0 42.2 0 49 0 C49.04528356 11.69221633 49.08193503 23.38437388 49.10362434 35.07665825 C49.11403699 40.50654244 49.12815003 45.93636323 49.15087891 51.36621094 C49.1726973 56.6117019 49.18458755 61.85713209 49.18975449 67.10266495 C49.19343413 69.09840984 49.20061937 71.09415161 49.21146011 73.08987045 C49.22609472 75.89706214 49.22797297 78.70400644 49.22705078 81.51123047 C49.23424133 82.32619492 49.24143188 83.14115936 49.24884033 83.9808197 C49.21911843 92.40697888 48.47564935 100.65391639 42.875 107.3046875 C36.43138066 113.13079332 28.62860721 113.60745562 20.26953125 113.30859375 C12.49169696 112.57448514 8.57845762 110.20139802 3.4453125 104.328125 C-0.23591898 98.39835754 -0.28342194 92.25140844 -0.22705078 85.48461914 C-0.22734283 84.55700775 -0.22763489 83.62939636 -0.22793579 82.67367554 C-0.22654967 79.62740513 -0.21102231 76.58138359 -0.1953125 73.53515625 C-0.19157982 71.41523879 -0.18873405 69.29531959 -0.18673706 67.17539978 C-0.1791207 61.61053662 -0.15948937 56.04577875 -0.1373291 50.48095703 C-0.11682761 44.79656397 -0.10772615 39.1121538 -0.09765625 33.42773438 C-0.07624158 22.28510267 -0.04107571 11.14257659 0 0 Z " fill="#1E130F" transform="translate(531,824)"/>
<path d="M0 0 C4.89684816 3.9487558 6.5122085 7.92951155 8 14 C8.18420982 16.67123113 8.28410796 19.23603834 8.2746582 21.90380859 C8.27976913 22.66090622 8.28488007 23.41800385 8.29014587 24.19804382 C8.30395778 26.68159055 8.30309139 29.16485711 8.30078125 31.6484375 C8.30467299 33.38807273 8.30900864 35.12770701 8.31376648 36.86734009 C8.32121078 40.50696904 8.32095057 44.14650097 8.31567383 47.78613281 C8.30988369 52.43175692 8.32680784 57.07698175 8.3500185 61.7225399 C8.36480833 65.31381522 8.36562039 68.90499555 8.36250877 72.49629593 C8.36301942 74.2081748 8.36820854 75.92005934 8.37832069 77.63190842 C8.48111465 97.46698331 8.48111465 97.46698331 3.203125 104.33984375 C-4.91890617 110.98366524 -12.65432345 111.95838809 -23 111 C-29.93168341 109.49971784 -33.9747542 106.75680754 -37.94140625 100.90234375 C-40.27447485 96.70970756 -40.16053594 92.74860034 -40.17700195 88.09130859 C-40.18357315 87.28602722 -40.19014435 86.48074585 -40.19691467 85.65106201 C-40.21663831 82.98351953 -40.22831033 80.31603343 -40.23828125 77.6484375 C-40.24235678 76.73568684 -40.2464323 75.82293617 -40.25063133 74.8825264 C-40.27149156 70.04815141 -40.28579152 65.21380478 -40.29516602 60.37939453 C-40.30620937 55.39954904 -40.34058539 50.42015297 -40.38033772 45.44046593 C-40.40656023 41.60042524 -40.41486302 37.76049053 -40.41844749 33.92036819 C-40.42330162 32.08565879 -40.43488196 30.25095375 -40.45348549 28.41633224 C-40.63588671 9.23056733 -40.63588671 9.23056733 -36 3 C-26.3863458 -6.437467 -11.35034738 -6.05827019 0 0 Z M-21 17 C-21.32216109 20.13668315 -21.32216109 20.13668315 -21.29052734 23.88061523 C-21.29724457 24.58809906 -21.30396179 25.29558289 -21.31088257 26.02450562 C-21.32992082 28.36927259 -21.33378958 30.71375425 -21.3359375 33.05859375 C-21.34236118 34.68522765 -21.34908921 36.31186038 -21.35610962 37.93849182 C-21.3680968 41.35070475 -21.37178895 44.76281632 -21.37060547 48.17504883 C-21.37040215 52.5513586 -21.39771098 56.92701993 -21.43214989 61.30317593 C-21.45436734 64.66346736 -21.45844461 68.02360144 -21.45738602 71.38395882 C-21.45974951 72.99754129 -21.46861499 74.61112761 -21.48405075 76.22463799 C-21.50360871 78.48021978 -21.49791457 80.73438653 -21.48583984 82.98999023 C-21.48868988 84.27413315 -21.49153992 85.55827606 -21.49447632 86.8813324 C-21.28949915 90.06414532 -21.28949915 90.06414532 -19.13760376 91.98109436 C-16.96500418 93.29674702 -16.96500418 93.29674702 -14.3125 92.3125 C-11.8740778 91.21242528 -11.8740778 91.21242528 -11 89 C-10.89256931 86.76959923 -10.85108581 84.53593164 -10.83886719 82.30297852 C-10.83141983 81.27101349 -10.83141983 81.27101349 -10.82382202 80.21820068 C-10.80919618 77.93842577 -10.80239826 75.6587204 -10.796875 73.37890625 C-10.79112454 71.79711403 -10.7853668 70.21532183 -10.77960205 68.63352966 C-10.76909131 65.31549758 -10.76324891 61.99748975 -10.75976562 58.67944336 C-10.7542762 54.42432948 -10.73023919 50.16953485 -10.70179367 45.91452122 C-10.68318723 42.64689695 -10.6779628 39.37934995 -10.67642975 36.11167717 C-10.6733989 34.54275705 -10.66535585 32.97383843 -10.65224457 31.40497017 C-10.63522269 29.21187012 -10.63705417 27.01955499 -10.64355469 24.82641602 C-10.63990906 23.57780289 -10.63626343 22.32918976 -10.63250732 21.04273987 C-10.74994911 18.02789045 -10.74994911 18.02789045 -12.36212158 16.09288025 C-15.64808526 13.9003092 -18.29565965 14.29565965 -21 17 Z " fill="#1E130F" transform="translate(1248,826)"/>
<path d="M0 0 C5.24339244 4.30326477 7.41340291 8.43161961 9 15 C9.18446836 17.70660489 9.28408649 20.30820003 9.2746582 23.01147461 C9.27976913 23.7799321 9.28488007 24.54838959 9.29014587 25.34013367 C9.30395849 27.86095129 9.30309153 30.38149296 9.30078125 32.90234375 C9.30467254 34.66679484 9.3090081 36.431245 9.31376648 38.19569397 C9.32121062 41.88659711 9.32095039 45.57740456 9.31567383 49.26831055 C9.3098793 53.98353289 9.32681854 58.69836242 9.3500185 63.41351986 C9.36479363 67.05536668 9.36562245 70.69711968 9.36250877 74.33899117 C9.36302001 76.07681621 9.36822041 77.81464678 9.37832069 79.55244255 C9.39074258 81.98826066 9.38385977 84.42332363 9.37231445 86.85913086 C9.38378006 87.9215802 9.38378006 87.9215802 9.39547729 89.00549316 C9.3289043 95.40257027 7.774928 100.70303435 3.875 105.75 C-4.16616149 112.04308291 -11.88998894 113.133512 -22 112 C-26.94629057 110.78773743 -30.72805461 109.20671742 -34.4375 105.6875 C-38.00354154 99.55390856 -39.44740959 94.82467722 -39.40405273 87.71313477 C-39.41091599 86.91541656 -39.41777924 86.11769836 -39.42485046 85.29580688 C-39.44304536 82.67748862 -39.43929154 80.05977374 -39.43359375 77.44140625 C-39.43815905 75.60969347 -39.44346567 73.7779824 -39.44947815 71.9462738 C-39.45839489 68.11409531 -39.45600251 64.28212538 -39.44604492 60.44995117 C-39.43455691 55.55300692 -39.45477142 50.65678396 -39.48396206 45.75993443 C-39.50235859 41.97909517 -39.50202473 38.19842767 -39.49632454 34.41755486 C-39.49617175 32.61274135 -39.50218105 30.80791589 -39.51461601 29.00314522 C-39.52959002 26.47373063 -39.51880302 23.94563472 -39.50170898 21.41625977 C-39.51137695 20.67990799 -39.52104492 19.94355621 -39.53100586 19.18489075 C-39.44240021 12.88458901 -37.32553483 7.86815962 -33.359375 2.9765625 C-24.22802061 -4.69200211 -10.62295786 -5.33816978 0 0 Z M-20 18 C-20.32216109 21.13668315 -20.32216109 21.13668315 -20.29052734 24.88061523 C-20.29724457 25.58809906 -20.30396179 26.29558289 -20.31088257 27.02450562 C-20.32992082 29.36927259 -20.33378958 31.71375425 -20.3359375 34.05859375 C-20.34236118 35.68522765 -20.34908921 37.31186038 -20.35610962 38.93849182 C-20.3680968 42.35070475 -20.37178895 45.76281632 -20.37060547 49.17504883 C-20.37040215 53.5513586 -20.39771098 57.92701993 -20.43214989 62.30317593 C-20.45436734 65.66346736 -20.45844461 69.02360144 -20.45738602 72.38395882 C-20.45974951 73.99754129 -20.46861499 75.61112761 -20.48405075 77.22463799 C-20.50360871 79.48021978 -20.49791457 81.73438653 -20.48583984 83.98999023 C-20.48868988 85.27413315 -20.49153992 86.55827606 -20.49447632 87.8813324 C-20.28949915 91.06414532 -20.28949915 91.06414532 -18.13760376 92.98109436 C-15.96500418 94.29674702 -15.96500418 94.29674702 -13.3125 93.3125 C-10.8740778 92.21242528 -10.8740778 92.21242528 -10 90 C-9.8977112 87.7694786 -9.86155719 85.53583368 -9.85473633 83.30297852 C-9.85137772 82.61500183 -9.8480191 81.92702515 -9.84455872 81.21820068 C-9.83504078 78.93841763 -9.83310521 76.65870795 -9.83203125 74.37890625 C-9.82881934 72.79711374 -9.82545532 71.21532154 -9.82194519 69.63352966 C-9.81595188 66.31549389 -9.81410551 62.99748417 -9.81469727 59.67944336 C-9.81479892 55.42440055 -9.80114432 51.16952449 -9.78392506 46.91452122 C-9.77281557 43.6468987 -9.77077773 40.37931664 -9.77130699 37.11167717 C-9.77012538 35.54276899 -9.76569347 33.97385981 -9.75797462 32.40497017 C-9.74819547 30.2119994 -9.75104433 28.01939244 -9.75708008 25.82641602 C-9.75565506 24.57780289 -9.75423004 23.32918976 -9.75276184 22.04273987 C-9.76643934 18.82439155 -9.76643934 18.82439155 -12 16 C-16.50565109 15.44745736 -16.50565109 15.44745736 -20 18 Z " fill="#1E130F" transform="translate(443,825)"/>
<path d="M0 0 C8.25 0 16.5 0 25 0 C28.393377 19.91278371 31.64038485 39.84359966 34.6875 59.8125 C34.83148224 60.75071594 34.97546448 61.68893188 35.12380981 62.65557861 C36.748801 73.26126078 38.28962451 83.87617382 39.70703125 94.51171875 C39.83736252 95.47269974 39.96769379 96.43368073 40.10197449 97.42378235 C40.22019058 98.32767197 40.33840668 99.23156158 40.46020508 100.1628418 C40.56480545 100.95377731 40.66940582 101.74471283 40.7771759 102.55961609 C41.03308952 105.36239854 41 108.18555845 41 111 C34.73 111 28.46 111 22 111 C20.27826653 103.30959048 19.50218228 95.86752239 19 88 C14.71 88 10.42 88 6 88 C5.87625 89.93875 5.7525 91.8775 5.625 93.875 C5.1823384 99.73224691 4.2823212 105.27229866 3 111 C-3.27 111 -9.54 111 -16 111 C-15.284306 99.15028166 -13.63649612 87.49228784 -11.9375 75.75 C-11.78715302 74.70127716 -11.63680603 73.65255432 -11.48190308 72.572052 C-8.00079507 48.32503597 -4.03880493 24.15939676 0 0 Z M12 40 C11.49244803 43.68650112 10.99532488 47.37433775 10.5 51.0625 C10.35691406 52.10083984 10.21382812 53.13917969 10.06640625 54.20898438 C9.35798295 59.5221591 8.81751847 64.63960518 9 70 C11.31 70 13.62 70 16 70 C15.40211877 59.9304214 14.33682757 49.99375949 13 40 C12.67 40 12.34 40 12 40 Z " fill="#1E130F" transform="translate(1672,824)"/>
<path d="M0 0 C8.25 0 16.5 0 25 0 C27.0432564 9.93282449 28.84717368 19.84760792 30.375 29.875 C30.58750868 31.25581175 30.80024215 32.63658891 31.01318359 34.01733398 C31.45560163 36.89095093 31.89569645 39.76491046 32.33398438 42.63916016 C32.88452214 46.2486562 33.44038836 49.85730676 33.99781799 53.46574402 C36.03313306 66.65048999 38.04044693 79.83934021 39.8125 93.0625 C39.93641113 93.96556885 40.06032227 94.8686377 40.18798828 95.79907227 C40.29739746 96.64010498 40.40680664 97.4811377 40.51953125 98.34765625 C40.61339111 99.05929932 40.70725098 99.77094238 40.80395508 100.50415039 C41.07796963 103.99263202 41 107.50077322 41 111 C34.73 111 28.46 111 22 111 C21.49731549 107.7295585 20.99774167 104.45869413 20.5 101.1875 C20.35691406 100.25873047 20.21382812 99.32996094 20.06640625 98.37304688 C19.93105469 97.48037109 19.79570313 96.58769531 19.65625 95.66796875 C19.53056641 94.84578857 19.40488281 94.0236084 19.27539062 93.17651367 C19 91 19 91 19 88 C14.71 88 10.42 88 6 88 C5.90912109 89.50240234 5.90912109 89.50240234 5.81640625 91.03515625 C5.73191595 92.37761331 5.64727232 93.72006072 5.5625 95.0625 C5.48128906 96.37347656 5.40007812 97.68445313 5.31640625 99.03515625 C4.47965739 109.52034261 4.47965739 109.52034261 3 111 C1.58429877 111.08651611 0.164405 111.10704904 -1.25390625 111.09765625 C-2.0229126 111.09515869 -2.79191895 111.09266113 -3.58422852 111.09008789 C-4.56705811 111.08098389 -5.5498877 111.07187988 -6.5625 111.0625 C-8.24601009 111.05101141 -9.92952267 111.0398852 -11.61303711 111.02905273 C-12.44105331 111.02356918 -13.26906952 111.01808563 -14.12217712 111.01243591 C-15.05169945 111.00628014 -15.05169945 111.00628014 -16 111 C-14.65894111 97.1236119 -12.85492491 83.35185212 -10.8125 69.5625 C-10.50771609 67.48633033 -10.20294749 65.41015842 -9.89819336 63.33398438 C-6.78090773 42.1938554 -3.41527384 21.09372778 0 0 Z M12 42 C11.49468813 45.72846692 10.9966867 49.45787508 10.5 53.1875 C10.35691406 54.24259766 10.21382812 55.29769531 10.06640625 56.38476562 C9.93105469 57.40634766 9.79570313 58.42792969 9.65625 59.48046875 C9.53056641 60.41785889 9.40488281 61.35524902 9.27539062 62.32104492 C9.00995308 64.90317808 8.95063936 67.40650989 9 70 C11.64 70 14.28 70 17 70 C16.55382074 66.08184869 16.0909586 62.16584436 15.625 58.25 C15.43550781 56.58324219 15.43550781 56.58324219 15.2421875 54.8828125 C15.11328125 53.81289063 14.984375 52.74296875 14.8515625 51.640625 C14.73635254 50.65610352 14.62114258 49.67158203 14.50244141 48.65722656 C14.01796823 46.09502734 13.29210892 44.24836282 12 42 Z " fill="#1E130F" transform="translate(1495,824)"/>
<path d="M0 0 C5.00168676 4.27131106 8.69476885 9.15179006 9.22705078 15.86254883 C9.21657715 16.88372803 9.20610352 17.90490723 9.1953125 18.95703125 C9.18886719 20.06884766 9.18242188 21.18066406 9.17578125 22.32617188 C9.15902344 23.47666016 9.14226562 24.62714844 9.125 25.8125 C9.11597656 26.98232422 9.10695313 28.15214844 9.09765625 29.35742188 C9.07413831 32.23836916 9.03826879 35.11921089 9 38 C2.73 38 -3.54 38 -10 38 C-10.06058594 36.56785156 -10.12117188 35.13570312 -10.18359375 33.66015625 C-10.26798104 31.79425959 -10.35262993 29.92837476 -10.4375 28.0625 C-10.47681641 27.11697266 -10.51613281 26.17144531 -10.55664062 25.19726562 C-10.59853516 24.29814453 -10.64042969 23.39902344 -10.68359375 22.47265625 C-10.72025146 21.64000244 -10.75690918 20.80734863 -10.79467773 19.94946289 C-10.79367103 17.99661142 -10.79367103 17.99661142 -12 17 C-13.99958364 16.95919217 -16.00045254 16.95745644 -18 17 C-20.50084478 22.00168956 -19.74478147 29.82608514 -18.4921875 35.1640625 C-15.30178824 41.69973478 -7.88905676 46.18435593 -2.16015625 50.33203125 C3.25412334 54.39633131 6.87991498 60.63974494 9 67 C9.29111743 71.70365456 9.27792345 76.41336884 9.3125 81.125 C9.34150391 82.41921875 9.37050781 83.7134375 9.40039062 85.046875 C9.45775911 93.71392866 8.9062076 100.87678086 2.75 107.375 C-5.38442559 112.18170603 -12.6125123 112.96667493 -22 112 C-27.78903756 110.45736248 -32.302759 107.78466483 -36 103 C-39.20689308 96.23075098 -39.36849055 90.41597194 -39.1875 83 C-39.17396484 81.93910156 -39.16042969 80.87820313 -39.14648438 79.78515625 C-39.1114131 77.18988179 -39.0576164 74.59487184 -39 72 C-32.73 72 -26.46 72 -20 72 C-19.6875 80.8125 -19.6875 80.8125 -19.61206055 83.57739258 C-19.57894775 84.30079834 -19.54583496 85.0242041 -19.51171875 85.76953125 C-19.48553467 86.50792236 -19.45935059 87.24631348 -19.43237305 88.00708008 C-18.89767037 90.47166391 -17.90034653 91.40052324 -16 93 C-13.525 92.01 -13.525 92.01 -11 91 C-10.91879249 88.10359882 -10.85940579 85.20949088 -10.8125 82.3125 C-10.78736328 81.49587891 -10.76222656 80.67925781 -10.73632812 79.83789062 C-10.65826979 73.41108778 -11.86870273 70.31742083 -16.28125 65.51953125 C-18.72426627 63.25552911 -21.21770005 61.14257651 -23.80932617 59.05541992 C-29.23418188 54.66618287 -34.19515655 50.57097126 -37 44 C-37.35964844 43.17757812 -37.71929688 42.35515625 -38.08984375 41.5078125 C-39.41545363 36.39880963 -39.36856912 31.44474041 -39.375 26.1875 C-39.39949219 25.14529297 -39.42398437 24.10308594 -39.44921875 23.02929688 C-39.48035256 14.76327091 -37.79774472 8.78518404 -32.875 2.125 C-23.71365056 -4.64643219 -10.08291475 -5.10056994 0 0 Z " fill="#1E130F" transform="translate(1767,825)"/>
<path d="M0 0 C4.9960747 4.10029051 7.96153284 8.56993931 9 15 C9.22478986 18.98393492 9.18937146 22.94894532 9.125 26.9375 C9.11597656 28.00291016 9.10695313 29.06832031 9.09765625 30.16601562 C9.07423539 32.77744161 9.03836937 35.38875087 9 38 C2.73 38 -3.54 38 -10 38 C-10.4375 28.625 -10.4375 28.625 -10.56811523 25.67431641 C-10.6252771 24.52455322 -10.6252771 24.52455322 -10.68359375 23.3515625 C-10.72025146 22.56604004 -10.75690918 21.78051758 -10.79467773 20.97119141 C-10.890891 18.92476504 -10.890891 18.92476504 -12 17 C-13.99954746 16.95745644 -16.00041636 16.95919217 -18 17 C-20.25966233 19.25966233 -19.4338352 24.66145444 -19.4465332 27.78344727 C-19.31453051 32.9615269 -18.66522266 36.30980785 -15.0390625 40.2109375 C-11.6560178 43.17920277 -8.20847349 46.04817872 -4.6875 48.8515625 C3.09968832 55.07678572 8.19323541 60.92508843 9.36645508 71.21362305 C9.49958812 74.69288338 9.49705575 78.14387023 9.4375 81.625 C9.44458984 82.800625 9.45167969 83.97625 9.45898438 85.1875 C9.40091191 93.138961 8.93030804 99.52989838 3.625 105.8125 C-4.38403672 112.48669726 -11.78217307 112.79276243 -22 112 C-26.94583136 110.81506124 -30.73572671 109.19943876 -34.4375 105.6875 C-38.90573381 98.00213785 -39.39227264 92.40972805 -39.1875 83.5625 C-39.17396484 82.44939453 -39.16042969 81.33628906 -39.14648438 80.18945312 C-39.1113338 77.45942504 -39.05753357 74.72964811 -39 72 C-32.73 72 -26.46 72 -20 72 C-19.505 81.405 -19.505 81.405 -19 91 C-17.35 91.66 -15.7 92.32 -14 93 C-12.515 92.01 -12.515 92.01 -11 91 C-10.66776401 87.99491053 -10.53635682 85.2540895 -10.5625 82.25 C-10.5325293 81.05117188 -10.5325293 81.05117188 -10.50195312 79.828125 C-10.50763732 72.9161487 -12.64450225 69.36631933 -17.55078125 64.4375 C-18.46214844 63.633125 -19.37351562 62.82875 -20.3125 62 C-21.76462891 60.70255859 -21.76462891 60.70255859 -23.24609375 59.37890625 C-25.41838344 57.50241771 -27.62295821 55.71438572 -29.875 53.9375 C-34.67270302 49.88943807 -37.74105424 44.11603535 -39 38 C-39.27539829 33.92030671 -39.27729913 29.83799403 -39.3125 25.75 C-39.34150391 24.64269531 -39.37050781 23.53539062 -39.40039062 22.39453125 C-39.46144094 14.49555984 -38.36056945 9.14470233 -33.359375 2.9765625 C-24.22802061 -4.69200211 -10.62295786 -5.33816978 0 0 Z " fill="#1E130F" transform="translate(376,825)"/>
<path d="M0 0 C4.68055514 3.77433987 6.99769584 8.0731875 8 14 C8.22781643 17.98374756 8.18937067 21.94899441 8.125 25.9375 C8.11597656 27.00291016 8.10695313 28.06832031 8.09765625 29.16601562 C8.07423539 31.77744161 8.03836937 34.38875087 8 37 C1.73 37 -4.54 37 -11 37 C-11.4375 27.625 -11.4375 27.625 -11.56811523 24.67431641 C-11.6252771 23.52455322 -11.6252771 23.52455322 -11.68359375 22.3515625 C-11.72025146 21.56604004 -11.75690918 20.78051758 -11.79467773 19.97119141 C-11.890891 17.92476504 -11.890891 17.92476504 -13 16 C-14.99954746 15.95745644 -17.00041636 15.95919217 -19 16 C-21.02575154 18.02575154 -20.2757576 21.92202217 -20.3125 24.6875 C-20.35600586 25.75000977 -20.35600586 25.75000977 -20.40039062 26.83398438 C-20.46279248 32.03253915 -19.39489996 34.86864026 -16 39 C-14.19072899 40.88086371 -14.19072899 40.88086371 -12.25 42.4375 C-11.55648437 43.0253125 -10.86296875 43.613125 -10.1484375 44.21875 C-8.73872707 45.3875281 -7.32732232 46.55426625 -5.9140625 47.71875 C1.32807339 53.82323236 7.3827186 60.18411593 8.2746582 70.03271484 C8.30299693 73.48050441 8.32174872 76.9270777 8.3125 80.375 C8.32861328 81.56867188 8.34472656 82.76234375 8.36132812 83.9921875 C8.36578948 92.05831918 8.01392157 98.43088235 2.625 104.8125 C-5.38916469 111.49097058 -12.77747286 111.78295515 -23 111 C-29.80313412 109.43142494 -34.23270042 106.88640559 -38 101 C-40.7288882 95.08422837 -40.22255688 88.99621443 -40.125 82.625 C-40.11597656 81.50738281 -40.10695313 80.38976562 -40.09765625 79.23828125 C-40.07418457 76.49209488 -40.03831655 73.74601937 -40 71 C-33.73 71 -27.46 71 -21 71 C-20.505 80.405 -20.505 80.405 -20 90 C-18.35 90.66 -16.7 91.32 -15 92 C-13.3539319 91.02083861 -13.3539319 91.02083861 -12 89 C-11.67314349 86.13485241 -11.5357563 83.54907623 -11.5625 80.6875 C-11.54251953 79.94048828 -11.52253906 79.19347656 -11.50195312 78.42382812 C-11.50768551 71.89464552 -13.66621238 68.3456947 -18.296875 63.69140625 C-19.10640625 62.98886719 -19.9159375 62.28632812 -20.75 61.5625 C-21.6265625 60.78648437 -22.503125 60.01046875 -23.40625 59.2109375 C-24.98112306 57.86850052 -26.580007 56.55274108 -28.21875 55.2890625 C-34.06507015 50.67946392 -38.41405815 45.41230979 -40 38 C-40.49279068 33.62182855 -40.63814776 29.2787617 -40.6875 24.875 C-40.70683594 23.76664795 -40.72617187 22.6582959 -40.74609375 21.51635742 C-40.63890477 14.02931873 -39.24342189 8.24721719 -35 2 C-25.40831599 -6.52594134 -10.78609677 -5.75710032 0 0 Z " fill="#1E130F" transform="translate(944,826)"/>
<path d="M0 0 C4.68055514 3.77433987 6.99769584 8.0731875 8 14 C8.22781643 17.98374756 8.18937067 21.94899441 8.125 25.9375 C8.11597656 27.00291016 8.10695313 28.06832031 8.09765625 29.16601562 C8.07423539 31.77744161 8.03836937 34.38875087 8 37 C1.73 37 -4.54 37 -11 37 C-11.33 30.07 -11.66 23.14 -12 16 C-14.31 16 -16.62 16 -19 16 C-20.33128112 17.10557617 -20.33128112 17.10557617 -20.12025452 19.89161682 C-20.11803391 21.18623337 -20.11581329 22.48084991 -20.11352539 23.81469727 C-20.11367142 24.52685394 -20.11381744 25.23901062 -20.1139679 25.9727478 C-20.1132687 28.33733112 -20.10547606 30.70183661 -20.09765625 33.06640625 C-20.09579209 34.70165463 -20.09436818 36.33690357 -20.09336853 37.97215271 C-20.08954318 42.28434785 -20.07971275 46.59650952 -20.06866455 50.90869141 C-20.0584508 55.30565946 -20.05387099 59.70263289 -20.04882812 64.09960938 C-20.03809049 72.73308831 -20.02101387 81.36654 -20 90 C-18.35 90.66 -16.7 91.32 -15 92 C-13.09965347 90.40052324 -12.10232963 89.47166391 -11.56762695 87.00708008 C-11.54144287 86.26868896 -11.51525879 85.53029785 -11.48828125 84.76953125 C-11.45516846 84.04612549 -11.42205566 83.32271973 -11.38793945 82.57739258 C-11.35059692 81.20877075 -11.35059692 81.20877075 -11.3125 79.8125 C-11.209375 76.904375 -11.10625 73.99625 -11 71 C-4.73 71 1.54 71 8 71 C8.08162514 74.47964953 8.14080146 77.95734697 8.1875 81.4375 C8.21263672 82.41138672 8.23777344 83.38527344 8.26367188 84.38867188 C8.33696473 91.69352652 7.77608964 98.38504849 3.203125 104.33984375 C-4.91890617 110.98366524 -12.65432345 111.95838809 -23 111 C-29.88246561 109.51037046 -33.95618079 106.78027036 -37.94140625 101 C-40.30543541 96.53364233 -40.15917708 92.02539423 -40.17700195 87.06958008 C-40.18357315 86.27390625 -40.19014435 85.47823242 -40.19691467 84.65844727 C-40.2166018 82.02880755 -40.2283011 79.39922487 -40.23828125 76.76953125 C-40.24235678 75.86873022 -40.2464323 74.96792919 -40.25063133 74.03983116 C-40.27147425 69.27029018 -40.28578269 64.50077781 -40.29516602 59.73120117 C-40.3062164 54.81976314 -40.34060554 49.9087799 -40.38033772 44.99750233 C-40.40655988 41.20807589 -40.41486289 37.41875683 -40.41844749 33.62924767 C-40.42330032 31.81965761 -40.43487688 30.01007194 -40.45348549 28.20057106 C-40.63607668 9.26597039 -40.63607668 9.26597039 -36 3 C-26.38976642 -6.43989971 -11.34740099 -6.05669754 0 0 Z " fill="#1E130F" transform="translate(639,826)"/>
<path d="M0 0 C14.52 0 29.04 0 44 0 C44 5.94 44 11.88 44 18 C35.75 18 27.5 18 19 18 C19 27.24 19 36.48 19 46 C25.93 46 32.86 46 40 46 C40 52.27 40 58.54 40 65 C33.07 65 26.14 65 19 65 C19 74.24 19 83.48 19 93 C27.25 93 35.5 93 44 93 C44 98.94 44 104.88 44 111 C29.48 111 14.96 111 0 111 C0 74.37 0 37.74 0 0 Z " fill="#1E130F" transform="translate(843,824)"/>
<path d="M0 0 C6.27 0 12.54 0 19 0 C19 30.69 19 61.38 19 93 C27.25 93 35.5 93 44 93 C44 98.94 44 104.88 44 111 C29.48 111 14.96 111 0 111 C0 74.37 0 37.74 0 0 Z " fill="#1E130F" transform="translate(1384,824)"/>
<path d="M0 0 C6.27 0 12.54 0 19 0 C19 30.69 19 61.38 19 93 C27.25 93 35.5 93 44 93 C44 98.94 44 104.88 44 111 C29.48 111 14.96 111 0 111 C0 74.37 0 37.74 0 0 Z " fill="#1E130F" transform="translate(472,824)"/>
<path d="M0 0 C6.6 0 13.2 0 20 0 C20 36.63 20 73.26 20 111 C13.4 111 6.8 111 0 111 C0 74.37 0 37.74 0 0 Z " fill="#1E130F" transform="translate(1343,824)"/>
<path d="M0 0 C6.6 0 13.2 0 20 0 C20 36.63 20 73.26 20 111 C13.4 111 6.8 111 0 111 C0 74.37 0 37.74 0 0 Z " fill="#1E130F" transform="translate(666,824)"/>
<path d="M0 0 C6.27 0 12.54 0 19 0 C19 36.63 19 73.26 19 111 C12.4 111 5.8 111 -1 111 C-1.02312005 96.67505516 -1.04091336 82.35011473 -1.05181217 68.02515507 C-1.05704174 61.3742647 -1.06414072 54.72339214 -1.07543945 48.07250977 C-1.08626571 41.65997123 -1.09227628 35.24744496 -1.09487724 28.83489799 C-1.09673197 26.38235722 -1.10035347 23.92981715 -1.10573006 21.47728157 C-1.11293702 18.05523323 -1.11399109 14.63323629 -1.11352539 11.21118164 C-1.11712067 10.18619568 -1.12071594 9.16120972 -1.12442017 8.10516357 C-1.1230455 7.17823196 -1.12167084 6.25130035 -1.12025452 5.29627991 C-1.12117631 4.48602387 -1.1220981 3.67576784 -1.12304783 2.8409586 C-1 1 -1 1 0 0 Z " fill="#1E130F" transform="translate(1621,824)"/>
<path d="M0 0 C6.27 0 12.54 0 19 0 C19 36.63 19 73.26 19 111 C12.73 111 6.46 111 0 111 C0 74.37 0 37.74 0 0 Z " fill="#1E130F" transform="translate(1444,824)"/>
<path d="M0 0 C6.27 0 12.54 0 19 0 C19 36.63 19 73.26 19 111 C12.73 111 6.46 111 0 111 C0 74.37 0 37.74 0 0 Z " fill="#1E130F" transform="translate(1007,824)"/>
</svg>
